<?xml version="1.0" encoding="utf-8"?>
<!-- Generator: Adobe Illustrator 16.0.3, SVG Export Plug-In . SVG Version: 6.00 Build 0)  -->
<!DOCTYPE svg PUBLIC "-//W3C//DTD SVG 1.1//EN" "http://www.w3.org/Graphics/SVG/1.1/DTD/svg11.dtd">
<svg version="1.1" id="Layer_1" xmlns="http://www.w3.org/2000/svg" xmlns:xlink="http://www.w3.org/1999/xlink" x="0px" y="0px"
	 width="660px" height="230px" viewBox="0 0 660 230" enable-background="new 0 0 660 230" xml:space="preserve">
<g>
	<path d="M497.038,101.935c0.193-0.066,0.516-0.259,0.709-0.259c0.641,0,0.451,1.546,0.451,1.803v3.86
		c0,2.126-0.065,3.221-1.61,4.83c-1.545,1.545-3.732,2.574-5.985,2.574c-2.382,0-4.44-1.287-4.44-3.797
		c0-3.09,2.509-4.764,5.018-6.052L497.038,101.935z M490.861,103.608c-3.541,1.736-9.527,4.442-9.527,9.013
		c0,3.219,3.023,5.086,6.052,5.086c5.597,0,9.783-4.893,10.362-4.893c0.901,0,1.222,4.506,4.376,4.506
		c1.676,0,3.284-0.966,4.572-1.868c0.45-0.385,1.545-1.287,1.545-1.995c0-0.257-0.193-0.515-0.45-0.515
		c-0.581,0-1.288,1.609-2.898,1.609c-2.317,0-2.252-3.734-2.252-5.149V94.209c0-1.737,0.259-3.411-1.289-4.698
		c-1.482-1.353-3.863-1.674-5.858-1.674c-4.116,0-8.494,1.736-11.522,4.442c-1.224,1.029-2.703,2.896-2.703,4.57
		c0,0.643,0.322,0.773,0.836,0.773c0.774,0,2.125-0.515,2.77-0.836c1.027-0.452,1.352-1.352,1.802-2.317
		c1.48-3.283,3.476-5.407,7.401-5.407c3.989,0,4.118,2.64,4.118,5.793v2.832c0,2.447-0.065,2.51-2.381,3.606L490.861,103.608z
		 M449.083,110.367c0,2.767,0.579,4.957-2.896,5.277c-0.709,0.066-1.804-0.064-1.804,0.901c0,0.516,0.451,0.644,0.903,0.644
		c1.995,0,4.054-0.258,6.111-0.258c1.931,0,3.991,0.258,6.053,0.258c0.452,0,0.772-0.194,0.772-0.709
		c0-0.836-1.157-0.771-1.802-0.836c-3.478-0.32-2.894-2.511-2.894-5.277V99.553c0-2.576,0.191-3.991,2.056-5.923
		c1.677-1.738,3.928-2.77,6.374-2.77c2.509,0,4.828,1.031,6.055,2.898c1.156,1.736,1.156,4.313,1.156,6.373v10.235
		c0,2.767,0.581,4.957-2.896,5.276c-0.705,0.066-1.802-0.063-1.802,0.902c0,0.516,0.451,0.644,0.9,0.644
		c1.996,0,4.057-0.258,6.115-0.258c1.929,0,3.991,0.258,6.052,0.258c0.451,0,0.772-0.194,0.772-0.709
		c0-0.837-1.159-0.771-1.802-0.837c-3.476-0.319-2.898-2.51-2.898-5.276v-10.171c0-3.089,0.13-6.244-1.927-8.883
		c-1.805-2.316-4.379-3.476-7.597-3.476c-5.858,0-9.462,5.279-10.555,5.279v-4.25c0-0.449,0.063-1.029-0.583-1.029
		c-0.513,0-0.836,0.515-1.16,0.836c-1.026,1.224-3.797,2.896-5.343,3.348c-0.579,0.193-1.48,0.323-1.48,1.096
		c0,0.385,0.386,0.515,0.776,0.515h0.834c0.515,0,1.48,0.063,1.865,0.513c0.71,0.708,0.646,3.219,0.646,4.121v12.103
		L449.083,110.367L449.083,110.367z M430.74,101.935c0.191-0.066,0.513-0.259,0.707-0.259c0.641,0,0.45,1.546,0.45,1.803v3.86
		c0,2.126-0.065,3.221-1.61,4.83c-1.543,1.545-3.731,2.574-5.983,2.574c-2.38,0-4.444-1.287-4.444-3.797
		c0-3.09,2.511-4.764,5.021-6.052L430.74,101.935z M424.557,103.608c-3.541,1.736-9.529,4.442-9.529,9.013
		c0,3.219,3.026,5.086,6.052,5.086c5.602,0,9.784-4.893,10.365-4.893c0.9,0,1.223,4.506,4.376,4.506
		c1.675,0,3.283-0.966,4.571-1.868c0.451-0.385,1.545-1.287,1.545-1.995c0-0.257-0.192-0.515-0.45-0.515
		c-0.581,0-1.288,1.609-2.896,1.609c-2.317,0-2.254-3.734-2.254-5.149V94.209c0-1.737,0.259-3.411-1.286-4.698
		c-1.481-1.353-3.866-1.674-5.861-1.674c-4.118,0-8.494,1.736-11.521,4.442c-1.222,1.029-2.705,2.896-2.705,4.57
		c0,0.643,0.322,0.773,0.838,0.773c0.772,0,2.123-0.515,2.769-0.836c1.029-0.452,1.354-1.352,1.8-2.317
		c1.481-3.283,3.477-5.407,7.402-5.407c3.991,0,4.121,2.64,4.121,5.793v2.832c0,2.447-0.068,2.51-2.386,3.606L424.557,103.608z
		 M404.862,82.236c1.866,0,3.024-1.416,3.024-3.219c0-1.673-1.029-3.09-2.77-3.09c-1.804,0-2.768,1.545-2.768,3.22
		C402.35,80.628,403.188,82.236,404.862,82.236 M407.305,88.866c0-0.449,0.068-1.029-0.577-1.029c-0.516,0-0.834,0.515-1.159,0.836
		c-1.029,1.224-3.798,2.896-5.346,3.348c-0.579,0.194-1.48,0.323-1.48,1.096c0,0.385,0.386,0.515,0.774,0.515h0.834
		c0.516,0,1.482,0.064,1.867,0.514c0.71,0.708,0.645,3.218,0.645,4.12v23.689c0,4.634-1.352,6.565-4.892,9.396
		c-0.322,0.258-0.644,0.578-0.644,1.028c0,0.321,0.193,0.452,0.451,0.452c0.579,0,1.222-0.579,1.672-0.902
		c1.932-1.286,4.7-3.603,5.988-5.598c1.739-2.511,1.865-5.346,1.865-8.304L407.305,88.866L407.305,88.866z M391.729,72.839
		c0-0.516,0.064-1.031-0.577-1.031c-0.452,0-1.031,0.451-1.354,0.708c-1.545,1.028-3.991,1.673-5.793,1.996
		c-0.388,0.064-0.902,0.257-0.902,0.707c0,0.837,1.095,0.644,1.674,0.644c3.09,0,2.512,2.831,2.512,5.213v29.29
		c0,2.767,0.578,4.957-2.896,5.276c-0.707,0.066-1.802-0.063-1.802,0.902c0,0.516,0.45,0.643,0.9,0.643
		c1.996,0,4.057-0.258,6.114-0.258c1.93,0,3.99,0.258,6.051,0.258c0.451,0,0.774-0.193,0.774-0.708c0-0.837-1.161-0.771-1.804-0.837
		c-3.474-0.319-2.896-2.51-2.896-5.276V72.839L391.729,72.839z M355.103,96.14c0-1.673-0.261-2.574,1.157-3.733
		c1.933-1.609,4.83-2.447,7.339-2.447c7.017,0,11.394,6.179,11.394,12.745c0,7.34-4.441,13.906-12.293,13.906
		c-2.191,0-4.507-0.387-6.183-1.995c-1.546-1.482-1.414-3.156-1.414-5.15V96.14L355.103,96.14z M355.103,72.839
		c0-0.516,0.063-1.031-0.581-1.031c-0.452,0-1.027,0.451-1.353,0.708c-1.545,1.028-3.991,1.673-5.795,1.996
		c-0.386,0.064-0.899,0.257-0.899,0.707c0,0.837,1.094,0.644,1.675,0.644c3.091,0,2.512,2.831,2.512,5.213v29.998
		c0,1.929,0.063,2.896-0.322,4.764c-0.066,0.387-0.323,1.286-0.323,1.674c0,0.451,0.194,0.771,0.646,0.771
		c0.772,0,1.22-1.287,1.479-1.802c0.259-0.578,0.644-1.606,1.415-1.606c1.095,0,3.926,2.831,9.144,2.831
		c9.201,0,17.185-6.375,17.185-15.837c0-7.981-6.048-14.484-14.226-14.032c-3.281,0.192-6.306,1.48-9.202,2.896
		c-0.259,0.128-0.581,0.452-0.837,0.452c-0.385,0-0.514-0.515-0.514-0.772V72.839H355.103z M339.525,90.283
		c0-0.709,0.32-1.61-0.707-1.61h-7.468c-0.514,0-0.901-0.127-0.901,0.451c0,0.837,1.223,0.837,1.802,0.837
		c3.478,0,2.833,2.447,2.833,5.151v12.294c0,1.804,0.257,3.283-1.097,4.764c-1.801,1.995-4.118,2.897-6.888,2.897
		c-2.381,0-5.147-0.838-6.437-2.962c-1.156-1.869-1.156-5.086-1.156-7.211V90.991c0-0.967,0.321-2.318-1.03-2.318h-7.209
		c-0.516,0-0.837-0.127-0.837,0.387c0,0.901,1.158,0.901,1.736,0.901c3.544,0,2.896,2.447,2.896,5.151v9.783
		c0,3.155-0.128,6.437,1.934,9.077c1.864,2.447,4.439,3.733,7.594,3.733c5.857,0,8.883-4.506,9.849-4.506
		c0.836,0,0.515,2.317,0.515,2.639v1.545c0,0.322,0,0.515,0.321,0.515c0.193,0,0.578-0.322,0.708-0.385
		c1.865-1.418,4.185-2.125,6.438-2.771c0.386-0.127,1.353-0.258,1.353-0.836c0-0.451-0.452-0.515-0.838-0.515l-0.834,0.064
		c-3.09,0.259-2.574-1.736-2.574-4.248V90.283H339.525z M302.511,82.236c1.867,0,3.025-1.416,3.025-3.219
		c0-1.673-1.03-3.09-2.767-3.09c-1.803,0-2.771,1.545-2.771,3.22C300,80.628,300.836,82.236,302.511,82.236 M304.959,88.866
		c0-0.449,0.063-1.029-0.581-1.029c-0.514,0-0.836,0.515-1.158,0.836c-1.031,1.224-3.797,2.896-5.343,3.348
		c-0.58,0.194-1.481,0.323-1.481,1.096c0,0.385,0.388,0.515,0.772,0.515h0.836c0.516,0,1.48,0.064,1.868,0.514
		c0.708,0.708,0.642,3.218,0.642,4.12v23.689c0,4.634-1.352,6.565-4.891,9.396c-0.322,0.258-0.643,0.578-0.643,1.028
		c0,0.321,0.192,0.452,0.451,0.452c0.578,0,1.221-0.579,1.674-0.902c1.928-1.286,4.698-3.603,5.985-5.598
		c1.736-2.511,1.868-5.346,1.868-8.304V88.866L304.959,88.866z M277.15,83.845c0-4.055-0.322-5.279,4.184-5.279
		c0.58,0,1.673,0,1.673-0.836c0-0.708-0.514-0.901-1.094-0.901c-2.446,0-4.892,0.258-7.337,0.258c-2.446,0-4.765-0.258-7.21-0.258
		c-0.645,0-1.094,0.193-1.094,0.901c0,0.836,1.029,0.836,1.608,0.836c4.506,0,4.184,1.224,4.184,5.279v26.329
		c0,4.055,0.322,5.277-4.118,5.277c-0.644,0-1.673,0-1.673,0.837c0,0.644,0.515,0.901,1.094,0.901c2.189,0,4.249-0.258,6.438-0.258
		c6.179,0,12.485,0.258,18.667,0.258c1.739,0,1.61-0.771,1.674-2.446c0.066-2.254,0.708-4.507,0.708-6.694
		c0-0.452,0-0.902-0.579-0.902c-0.385,0-0.643,0.516-0.773,0.838c-0.707,1.737-1.866,4.119-3.348,5.343
		c-1.802,1.48-4.762,2.123-7.079,2.123c-5.794,0-5.922-2.317-5.922-7.209V83.845z"/>
	<path d="M647.026,31.125c0.193-0.065,0.514-0.258,0.705-0.258c0.643,0,0.451,1.545,0.451,1.803v3.862
		c0,2.124-0.063,3.218-1.607,4.827c-1.547,1.547-3.736,2.575-5.988,2.575c-2.381,0-4.442-1.287-4.442-3.797
		c0-3.09,2.511-4.765,5.021-6.05L647.026,31.125z M640.843,32.799c-3.54,1.737-9.526,4.442-9.526,9.012
		c0,3.218,3.025,5.086,6.054,5.086c5.597,0,9.781-4.893,10.36-4.893c0.9,0,1.223,4.506,4.378,4.506c1.674,0,3.284-0.965,4.572-1.867
		c0.448-0.386,1.543-1.287,1.543-1.996c0-0.258-0.191-0.514-0.451-0.514c-0.578,0-1.286,1.608-2.896,1.608
		c-2.316,0-2.255-3.733-2.255-5.15V23.401c0-1.738,0.259-3.412-1.286-4.7c-1.48-1.352-3.864-1.673-5.859-1.673
		c-4.118,0-8.494,1.737-11.522,4.443c-1.223,1.029-2.704,2.895-2.704,4.57c0,0.643,0.324,0.772,0.84,0.772
		c0.77,0,2.121-0.514,2.766-0.836c1.031-0.452,1.353-1.353,1.802-2.317c1.479-3.283,3.478-5.408,7.403-5.408
		c3.989,0,4.118,2.64,4.118,5.794v2.832c0,2.447-0.065,2.51-2.383,3.605L640.843,32.799z M598.424,39.558
		c0,2.768,0.579,4.956-2.896,5.277c-0.709,0.066-1.805-0.064-1.805,0.902c0,0.516,0.453,0.643,0.901,0.643
		c1.995,0,4.057-0.258,6.114-0.258c1.933,0,3.991,0.258,6.052,0.258c0.452,0,0.772-0.194,0.772-0.708
		c0-0.837-1.157-0.771-1.801-0.837c-3.476-0.321-2.896-2.509-2.896-5.277V28.742c0-2.574,0.191-3.99,2.063-5.921
		c1.672-1.739,3.925-2.769,6.372-2.769c2.509,0,4.827,1.029,6.049,2.897c1.161,1.736,1.161,4.312,1.161,6.373v10.235
		c0,2.768,0.579,4.956-2.896,5.277c-0.709,0.066-1.804-0.064-1.804,0.902c0,0.516,0.451,0.643,0.9,0.643
		c1.996,0,4.057-0.258,6.114-0.258c1.932,0,3.991,0.258,6.053,0.258c0.451,0,0.772-0.193,0.772-0.708
		c0-0.837-1.157-0.771-1.802-0.837c-3.478-0.321-2.896-2.509-2.896-5.277V29.386c0-3.089,0.129-6.244-1.932-8.883
		c-1.801-2.316-4.377-3.476-7.594-3.476c-5.858,0-9.462,5.279-10.557,5.279v-4.25c0-0.452,0.065-1.029-0.581-1.029
		c-0.514,0-0.833,0.515-1.156,0.836c-1.032,1.222-3.799,2.896-5.347,3.347c-0.579,0.193-1.479,0.322-1.479,1.096
		c0,0.385,0.387,0.515,0.774,0.515h0.833c0.516,0,1.48,0.063,1.867,0.514c0.708,0.708,0.645,3.217,0.645,4.119v12.104H598.424z
		 M583.746,11.427c1.87,0,2.833-1.48,2.833-3.217c0-1.545-1.028-3.09-2.705-3.09c-1.735,0-2.896,1.546-2.896,3.219
		C580.979,10.011,582.01,11.427,583.746,11.427 M586.001,18.057c0-0.452,0.063-1.029-0.581-1.029c-0.514,0-0.836,0.515-1.16,0.837
		c-1.029,1.222-3.795,2.896-5.343,3.347c-0.579,0.194-1.48,0.322-1.48,1.096c0,0.385,0.386,0.515,0.772,0.515h0.836
		c0.516,0,1.482,0.063,1.867,0.514c0.71,0.708,0.644,3.217,0.644,4.119v12.104c0,2.768,0.579,4.956-2.896,5.277
		c-0.708,0.066-1.802-0.064-1.802,0.902c0,0.516,0.45,0.643,0.898,0.643c1.995,0,4.057-0.258,6.113-0.258
		c1.935,0,3.991,0.258,6.053,0.258c0.452,0,0.772-0.194,0.772-0.708c0-0.837-1.157-0.771-1.799-0.837
		c-3.479-0.321-2.896-2.509-2.896-5.277L586.001,18.057L586.001,18.057z M573.065,21.985c0-0.836,0.317-2.253-0.519-2.832
		c-2.059-1.416-5.468-2.124-7.916-2.124c-8.63,0-16.736,6.824-16.736,15.513c0,7.789,6.499,14.355,14.419,14.355
		c3.475,0,6.693-1.031,9.333-3.155c0.451-0.386,1.93-1.673,1.93-2.316c0-0.259-0.193-0.515-0.451-0.515
		c-0.321,0-0.772,0.579-0.964,0.772c-1.996,1.931-4.637,2.832-7.402,2.832c-7.211,0-12.039-6.694-12.039-13.26
		c0-3.926,1.674-7.854,4.637-10.428c1.675-1.417,4.249-2.64,6.499-2.64c5.215,0,6.374,7.08,8.435,7.08
		C573.449,25.268,573.065,22.5,573.065,21.985 M566.625,8.595c-0.514,0.322-1.095,0.902-1.738,0.902c-0.9,0-1.735-0.772-2.314-1.288
		l-4.249-3.477c-0.516-0.385-1.162-0.966-1.804-0.966c-0.452,0-0.771,0.259-0.771,0.708c0,0.643,0.643,1.287,1.096,1.738
		l5.342,6.051c0.705,0.836,1.287,1.738,2.447,1.738c1.029,0,1.995-1.03,2.639-1.738l6.111-6.309
		c0.262-0.321,1.034-0.964,1.034-1.415c0-0.322-0.391-0.774-0.776-0.774c-0.516,0-1.22,0.581-1.61,0.902L566.625,8.595z
		 M518.928,25.331c0-1.673-0.26-2.575,1.159-3.733c1.931-1.609,4.828-2.446,7.339-2.446c7.015,0,11.393,6.179,11.393,12.744
		c0,7.341-4.445,13.906-12.296,13.906c-2.187,0-4.504-0.386-6.181-1.996c-1.545-1.48-1.413-3.155-1.413-5.15L518.928,25.331
		L518.928,25.331z M518.928,2.03c0-0.515,0.064-1.029-0.584-1.029c-0.449,0-1.026,0.45-1.35,0.708
		c-1.547,1.028-3.992,1.673-5.792,1.995c-0.389,0.063-0.901,0.256-0.901,0.707c0,0.837,1.095,0.644,1.672,0.644
		c3.09,0,2.511,2.833,2.511,5.214v29.996c0,1.93,0.067,2.896-0.321,4.764c-0.064,0.387-0.32,1.287-0.32,1.674
		c0,0.451,0.193,0.772,0.642,0.772c0.772,0,1.223-1.288,1.48-1.803c0.261-0.579,0.643-1.608,1.418-1.608
		c1.092,0,3.925,2.832,9.14,2.832c9.204,0,17.189-6.374,17.189-15.836c0-7.982-6.052-14.484-14.229-14.033
		c-3.281,0.192-6.304,1.481-9.203,2.896c-0.257,0.128-0.578,0.452-0.834,0.452c-0.388,0-0.516-0.515-0.516-0.774L518.928,2.03
		L518.928,2.03z M492.599,45.673c-7.274,0-11.33-7.917-11.33-14.29c0-6.566,3.991-13.133,11.07-13.133
		c7.468,0,11.137,7.404,11.137,13.905C503.478,38.27,499.552,45.673,492.599,45.673 M492.406,46.897
		c8.625,0,15.964-6.374,15.964-15.193c0-4.12-1.867-8.303-5.021-10.943c-3.089-2.639-6.952-3.734-10.943-3.734
		c-4.312,0-8.497,1.287-11.587,4.312c-2.768,2.641-4.376,6.502-4.376,10.364C476.442,40.524,483.714,46.897,492.406,46.897
		 M445.543,31.125c0.193-0.065,0.516-0.258,0.707-0.258c0.643,0,0.452,1.545,0.452,1.803v3.862c0,2.124-0.063,3.218-1.608,4.827
		c-1.546,1.547-3.734,2.575-5.986,2.575c-2.383,0-4.441-1.287-4.441-3.797c0-3.09,2.51-4.765,5.021-6.05L445.543,31.125z
		 M439.364,32.799c-3.541,1.737-9.525,4.442-9.525,9.012c0,3.218,3.022,5.086,6.05,5.086c5.602,0,9.783-4.893,10.362-4.893
		c0.903,0,1.226,4.506,4.381,4.506c1.671,0,3.281-0.965,4.567-1.867c0.451-0.386,1.546-1.287,1.546-1.996
		c0-0.258-0.193-0.514-0.451-0.514c-0.579,0-1.286,1.608-2.896,1.608c-2.316,0-2.252-3.733-2.252-5.15V23.401
		c0-1.738,0.257-3.412-1.289-4.7c-1.481-1.352-3.864-1.673-5.859-1.673c-4.117,0-8.494,1.737-11.521,4.443
		c-1.224,1.029-2.705,2.895-2.705,4.57c0,0.643,0.322,0.772,0.837,0.772c0.773,0,2.124-0.514,2.769-0.836
		c1.028-0.452,1.352-1.353,1.801-2.317c1.481-3.283,3.477-5.408,7.403-5.408c3.988,0,4.117,2.64,4.117,5.794v2.832
		c0,2.447-0.063,2.51-2.381,3.605L439.364,32.799z M396.945,39.558c0,2.768,0.576,4.956-2.898,5.277
		c-0.707,0.066-1.802-0.064-1.802,0.902c0,0.516,0.451,0.643,0.9,0.643c1.996,0,4.057-0.258,6.114-0.258
		c1.932,0,3.991,0.258,6.052,0.258c0.451,0,0.773-0.194,0.773-0.708c0-0.837-1.159-0.771-1.802-0.837
		c-3.478-0.321-2.896-2.509-2.896-5.277V28.742c0-2.574,0.193-3.99,2.061-5.921c1.674-1.739,3.926-2.769,6.372-2.769
		c2.511,0,4.827,1.029,6.052,2.897c1.159,1.736,1.159,4.312,1.159,6.373v10.235c0,2.768,0.58,4.956-2.896,5.277
		c-0.707,0.066-1.804-0.064-1.804,0.902c0,0.516,0.452,0.643,0.903,0.643c1.995,0,4.055-0.258,6.111-0.258
		c1.931,0,3.991,0.258,6.053,0.258c0.452,0,0.773-0.193,0.773-0.708c0-0.837-1.158-0.771-1.8-0.837
		c-3.479-0.321-2.899-2.509-2.899-5.277V29.386c0-3.089,0.127-6.244-1.931-8.883c-1.802-2.316-4.376-3.476-7.597-3.476
		c-5.856,0-9.462,5.279-10.554,5.279v-4.25c0-0.452,0.063-1.029-0.581-1.029c-0.514,0-0.836,0.515-1.159,0.836
		c-1.03,1.222-3.796,2.896-5.343,3.347c-0.581,0.193-1.481,0.322-1.481,1.096c0,0.385,0.385,0.515,0.774,0.515h0.834
		c0.516,0,1.481,0.063,1.869,0.514c0.705,0.708,0.642,3.217,0.642,4.119L396.945,39.558L396.945,39.558z M381.044,20.634
		c0-1.803,0.9-1.417,2.38-1.417h3.606c1.481,0,1.995,0.322,1.995-1.028c0-0.516,0-0.901-0.579-0.901h-6.372
		c-0.902-0.066-1.03-0.452-1.03-1.289v-4.572c0-0.385-0.065-0.771-0.516-0.771c-0.321,0-0.513,0.322-0.644,0.579
		c-1.479,3.09-3.347,4.699-6.112,6.502C373.451,17.993,373,18.25,373,18.701c0,0.774,1.673,0.515,1.995,0.515
		c1.221,0,1.608-0.193,1.608,1.16v16.542c0,2.574-0.261,5.859,1.416,7.983c1.095,1.353,2.896,1.996,4.636,1.996
		c2.255,0,4.376-0.967,5.986-2.447c0.45-0.322,1.288-1.16,1.288-1.803c0-0.192-0.193-0.452-0.451-0.452
		c-0.514,0-2.254,2.255-4.637,2.255c-3.862,0-3.797-4.764-3.797-7.533L381.044,20.634L381.044,20.634z M348.021,42.647
		c0,1.029-0.128,1.867,0.9,2.318c2.125,1.094,5.924,1.931,8.177,1.931c5.471,0,12.229-3.22,12.229-9.398
		c0-10.493-16.094-7.08-16.094-14.614c0-2.96,3.283-4.762,5.922-4.762c6.953,0,6.243,6.05,7.854,6.05
		c1.095,0,0.642-2.768,0.642-3.154c0-0.966,0.388-2.381-0.707-2.896c-1.546-0.643-4.957-1.095-6.632-1.095
		c-2.703,0-5.342,0.515-7.596,2.124c-2.06,1.48-3.408,3.476-3.408,5.986c0,5.213,5.856,6.824,9.848,8.11
		c3.092,1.029,6.18,2.446,6.18,6.18c0,4.119-4.056,6.307-7.854,6.307c-8.755,0-6.116-8.82-8.435-8.82
		c-0.707,0-0.773,0.901-0.834,1.417L348.021,42.647z M323.948,27.07c-0.708,0-2.191,0.194-2.191-0.836
		c0-1.028,1.031-3.024,1.61-3.733c1.932-2.704,5.085-4.312,8.369-4.312c2.06,0,4.185,0.513,5.6,1.994
		c0.9,0.966,1.676,2.447,1.676,3.798c0,1.545-0.967,2.252-2.384,2.573c-1.868,0.453-5.47,0.516-7.467,0.516H323.948z
		 M343.387,28.615c0.642,0,0.773-0.58,0.773-1.095c0-2.124-0.968-4.892-2.255-6.501c-2.253-2.769-5.794-3.991-9.269-3.991
		c-4.378,0-8.369,1.481-11.585,4.312c-3.412,2.963-4.637,6.373-4.637,10.751c0,8.046,6.243,14.806,14.676,14.806
		c3.992,0,7.146-1.031,10.172-3.605c0.45-0.385,2.509-2.124,2.509-2.896c0-0.258-0.193-0.515-0.514-0.515
		c-0.836,0-3.22,4.185-9.527,4.185c-7.789,0-12.487-6.246-12.487-13.454c0-2.124,0.644-1.996,2.64-1.996L343.387,28.615
		L343.387,28.615z M278.76,7.887c-0.387-1.03-0.452-1.867-1.675-1.867h-7.467c-0.708,0-1.866-0.321-1.866,0.708
		c0,0.9,0.901,1.028,1.544,1.028c3.476,0,3.734,0.387,3.476,3.669l-1.996,28.517c-0.193,3.155-0.386,4.829-3.991,4.829
		c-0.58,0-1.673,0.064-1.673,0.837c0,0.644,0.452,0.772,1.029,0.772c1.867,0,3.798-0.258,5.729-0.258
		c1.93,0,3.863,0.258,5.792,0.258c0.581,0,1.417,0,1.417-0.772c0-0.901-1.353-0.837-1.996-0.837c-4.571,0-4.506-3.284-4.249-7.208
		l1.867-26.521h0.451l12.682,32.636c0.127,0.452,0.322,1.224,0.964,1.224c0.581,0,0.773-0.709,0.968-1.16l14.29-33.473h0.451V39.43
		c0,1.159,0.129,3.541-0.966,4.441c-0.708,0.58-2.061,0.901-3.023,0.901c-0.645,0-1.996-0.128-1.996,0.837
		c0,0.707,0.708,0.772,1.222,0.772c2.51,0,5.085-0.258,7.66-0.258c2.063,0,4.119,0.258,6.181,0.258c0.515,0,1.223-0.065,1.223-0.772
		c0-0.966-1.352-0.837-1.995-0.837c-0.902,0-1.867-0.064-2.511-0.836c-0.774-0.902-0.708-3.476-0.708-4.505V12.844
		c0-1.16-0.259-3.669,0.516-4.571c0.578-0.708,1.996-0.516,2.831-0.516c0.644,0,1.545-0.128,1.545-1.028
		c0-1.029-1.159-0.708-1.868-0.708h-7.143c-0.71,0-1.353,0-1.74,0.835l-13.258,30.384L278.76,7.887z"/>
</g>
<g>
	<path fill="#FFED00" d="M91.36,227.924c55.77-10.544,89.301-57.484,89.306-105.064L180.664,7.052H2.056L2.057,122.86
		C2.059,170.441,35.592,217.38,91.36,227.924"/>
	<path fill="#FFFFFF" d="M91.36,225.235c25.675-4.964,47.605-17.948,63.484-37.58c14.948-18.48,23.179-41.498,23.179-64.794
		L178.021,9.694H4.698v113.167c-0.001,23.296,8.232,46.312,23.18,64.794C43.759,207.286,65.688,220.271,91.36,225.235"/>
	<path fill="#E30613" d="M91.359,221.734c24.59-4.902,45.591-17.42,60.813-36.24c14.455-17.871,22.414-40.121,22.413-62.635V13.13
		H8.136v109.73c-0.001,22.514,7.957,44.764,22.412,62.635C45.771,204.314,66.769,216.832,91.359,221.734"/>
	<path d="M91.262,228.981C34.924,218.38,0.997,170.958,1,122.86V5.994h180.721V122.86c0.004,48.099-33.923,95.521-90.264,106.121
		L91.36,229L91.262,228.981z M2.057,122.86c0.001,47.581,33.535,94.521,89.302,105.064c55.77-10.544,89.302-57.484,89.306-105.064
		L180.664,7.052H2.056L2.057,122.86z"/>
	<path d="M91.26,226.293c-25.943-4.993-48.148-18.122-64.203-37.975c-15.1-18.67-23.417-41.913-23.417-65.459V8.636h175.438v114.224
		c0,23.546-8.314,46.789-23.413,65.459c-16.055,19.854-38.26,32.981-64.203,37.975l-0.103,0.021L91.26,226.293z M4.697,122.861
		c-0.001,23.295,8.233,46.312,23.181,64.794c15.879,19.633,37.81,32.615,63.48,37.58c25.676-4.965,47.606-17.947,63.483-37.58
		c14.948-18.48,23.179-41.499,23.179-64.794L178.02,9.694H4.697V122.861z"/>
	<path fill="#009640" d="M91.359,221.734c23.811-4.748,44.255-16.635,59.349-34.47c-6.818-3.643-14.603-5.716-22.877-5.716
		c-4.5,0-8.849,0.625-12.984,1.771c5.4,2.906,10.199,6.779,14.166,11.392h0.001l-0.802,0.689
		c-8.917-10.358-22.112-16.919-36.852-16.919c-14.736,0-27.933,6.561-36.849,16.92l-0.801-0.69
		c3.966-4.61,8.766-8.486,14.166-11.392c-4.135-1.146-8.485-1.771-12.982-1.771c-8.273,0-16.061,2.069-22.88,5.715
		C47.106,205.098,67.549,216.987,91.359,221.734"/>
	<path fill="#FFFFFF" d="M39.761,182.847c4.771-1.526,9.854-2.354,15.132-2.354c3.584-0.001,7.077,0.394,10.446,1.118v-43.926
		H39.761V182.847z M117.383,137.686v43.925c3.367-0.726,6.861-1.118,10.446-1.118c5.277,0,10.36,0.831,15.13,2.354v-45.161H117.383z
		 M91.557,147.031c-6.104,0.023-12.241,4.5-12.355,13.609v18.288c1.056-0.266,2.123-0.5,3.204-0.696
		c-0.034-4.956-0.062-12.644-0.001-18.155c0.137-12.891,17.583-13.152,17.996,0c0,2.45-0.021,12.021-0.037,18.164
		c1.081,0.198,2.15,0.433,3.205,0.701v-18.301C103.543,151.415,97.591,147.059,91.557,147.031 M66.397,181.853
		c0.957,0.229,1.906,0.479,2.842,0.76c2.827-1.408,5.805-2.552,8.906-3.407v-18.57c0.078-9.636,6.784-14.685,13.411-14.661
		c3.276,0,6.55,1.212,9.004,3.669c2.456,2.455,4.066,6.146,4.064,10.998v18.579c3.082,0.852,6.044,1.991,8.854,3.392
		c0.936-0.281,1.887-0.53,2.847-0.76v-44.166H66.397V181.853z"/>
	<path fill="#009640" d="M80.603,36.806c-0.179,0.08-0.179,0.107-0.198,0.276c-0.007,0.196,0.139,0.542,0.38,0.798
		c0.241,0.265,0.553,0.43,0.796,0.423c0.026,0,0.046-0.001,0.055-0.001c0.316-0.031,0.627-0.042,0.934-0.043
		c4.723,0.018,8.261,3.165,11.131,5.971c-0.159-0.412-0.251-0.816-0.259-1.204c-0.008-0.604,0.261-1.2,0.814-1.567
		c0.55-0.369,1.323-0.547,2.377-0.549c0.775,0,1.711,0.104,2.828,0.32c-8.067-3.689-12.874-4.883-15.95-4.88
		C82.317,36.354,81.385,36.531,80.603,36.806"/>
	<path fill="#009640" d="M78.046,32.473c-0.598,0.187-0.651,0.386-0.659,0.528c-0.006,0.14,0.111,0.382,0.354,0.574
		c0.236,0.193,0.569,0.327,0.889,0.323h0.028c0.453-0.013,0.895-0.02,1.326-0.02c8.902-0.005,12.986,2.812,19.592,6.37
		c-0.096-0.254-0.144-0.518-0.144-0.784c0.073-2.099,2.753-3.561,6.476-3.58c0.403,0.001,0.825,0.022,1.255,0.061
		c-9.014-3.395-16.397-4.282-21.536-4.282C81.69,31.665,79.06,32.183,78.046,32.473"/>
	<path fill="#009640" d="M70.035,24.815c-0.065,0.07-0.125,0.233-0.124,0.453c-0.002,0.322,0.129,0.736,0.358,1.037
		c0.235,0.303,0.527,0.487,0.905,0.489c0.13,0,0.271-0.021,0.432-0.075c4.617-1.573,9.708-2.211,14.922-2.211
		c12.771,0.002,26.281,3.836,35.467,7.384c-0.243-0.363-0.38-0.743-0.39-1.14c0.002-0.842,0.624-1.526,1.581-1.961
		c0.967-0.444,2.333-0.696,4.073-0.699c0.948,0,2.026,0.088,3.195,0.258c-14.796-4.876-31.022-7.333-43.066-7.332
		C78.615,20.992,72.045,22.382,70.035,24.815"/>
	<path d="M6.549,11.541v111.318c0.001,22.888,8.089,45.48,22.767,63.632c15.487,19.148,36.897,31.885,61.89,36.829l0.152,0.029
		l0.156-0.029c24.993-4.944,46.405-17.676,61.892-36.829c14.678-18.151,22.764-40.744,22.764-63.632V11.541H6.549z M91.359,221.734
		c-23.81-4.748-44.253-16.636-59.346-34.471c6.82-3.645,14.607-5.716,22.88-5.716c4.497,0,8.846,0.626,12.98,1.771
		c-5.398,2.904-10.198,6.778-14.166,11.392l0.802,0.69c8.914-10.359,22.111-16.921,36.849-16.921c14.74,0,27.935,6.562,36.852,16.92
		l0.802-0.689h-0.001c-3.966-4.61-8.766-8.485-14.166-11.392c4.135-1.146,8.484-1.772,12.983-1.772
		c8.276,0,16.06,2.072,22.877,5.716C135.614,205.099,115.168,216.987,91.359,221.734 M53.769,130.043v-8.677h7.43v8.677h9.507
		v-8.677h7.43v8.677h9.507v-8.677h7.429v8.677h9.51v-8.677h7.432v8.677h9.508v-8.677h7.431v8.677h9.508v-8.677h7.43v15.278H36.831
		v-15.278h7.43v8.677H53.769z M80.557,55.789c-0.871-0.744-1.181-1.275-1.169-1.659c-0.034-0.514,0.602-1.279,2.01-2.381
		l-0.495-0.62h-0.001c-1.397,1.136-2.275,1.926-2.308,3.001c0.01,0.801,0.538,1.476,1.445,2.259
		c0.419,0.354,0.711,0.819,0.703,1.189c-0.005,0.316-0.161,0.677-0.858,1.084c-0.691,0.399-1.897,0.774-3.787,1.007
		c-0.295,0.036-0.567,0.08-0.832,0.129c-0.341-0.072-0.678-0.152-1.008-0.239c0.857-0.584,1.729-1.511,2.061-2.508l-0.758-0.234
		v-0.002c-0.26,0.937-1.579,2.119-2.348,2.436c-1.866-0.598-3.547-1.439-5.027-2.406c0.986-0.302,1.923-0.999,2.43-1.884
		l-0.69-0.384v-0.002c-0.468,0.871-1.722,1.623-2.652,1.64c-1.403-1.021-2.606-2.142-3.589-3.248
		c0.983-0.324,2.143-1.064,2.903-1.97l-0.614-0.502v-0.001c-0.692,0.869-2.066,1.647-2.848,1.813
		c-0.962-1.165-1.679-2.292-2.122-3.203c-0.096-0.199-0.178-0.404-0.267-0.608c0.768-0.264,1.903-0.948,2.612-1.672l-0.574-0.547
		c-0.57,0.611-1.794,1.321-2.341,1.487c-0.545-1.433-0.911-2.931-1.119-4.404c0.95-0.364,1.872-1.02,2.295-1.991l-0.729-0.31
		l-0.001-0.001c-0.263,0.633-0.924,1.166-1.662,1.489c-0.092-0.872-0.142-1.729-0.141-2.544c-0.001-0.976,0.061-1.892,0.167-2.721
		c0.492-0.358,0.91-0.841,1.165-1.479l-0.736-0.293c-0.223,0.552-0.584,0.949-1.028,1.233c-0.566,0.354-1.29,0.513-2.009,0.513
		c-1.105,0.012-2.191-0.405-2.587-0.864c-0.002-0.003-0.004-0.007-0.008-0.01s-0.006-0.008-0.007-0.011l-0.612,0.504
		c0.003,0.003,0.005,0.008,0.009,0.013h-0.001h0.001c0.554,0.696,0.778,1.523,0.778,2.316c0.001,0.751-0.208,1.472-0.508,1.973
		c-0.305,0.514-0.682,0.759-0.94,0.749c-0.077,0-0.152-0.015-0.234-0.054l-0.005,0.014c-0.009-0.003-0.016-0.008-0.025-0.011
		c-0.194-0.073-0.408-0.141-0.634-0.198l-0.192,0.769c0.196,0.05,0.382,0.108,0.546,0.17c1.311,0.519,1.687,1.271,1.712,2.336
		c0.008,1.357-0.809,3.161-1.706,4.798c-0.889,1.638-1.832,3.073-2.091,4.03c-0.039,0.104-0.063,0.213-0.062,0.324
		c0.07,0.786,0.766,1.053,1.403,1.356c0.161,0.069,0.33,0.136,0.497,0.199c-0.809,0.232-1.411,0.621-1.847,1.006
		c-0.263,0.229-0.466,0.456-0.625,0.641c-0.098-0.569-0.141-1.124-0.141-1.666c0.002-3.295,1.571-5.916,1.883-7.186
		c0.034-0.154,0.049-0.309,0.049-0.459c0-0.438-0.127-0.873-0.339-1.255c-0.354-0.635-0.996-1.163-1.812-1.166
		c-0.677-0.001-1.383,0.374-2.019,1.176c-0.275,0.342-0.537,0.67-0.79,0.979c-2.542,3.115-3.959,4.558-5.253,5.605
		c-0.459,0.373-0.906,0.694-1.388,1.03c-0.058,0.037-0.122,0.08-0.185,0.123c-0.311,0.219-0.918,0.356-1.566,0.353
		c-0.653,0.002-1.353-0.129-1.848-0.35c-0.511-0.23-0.729-0.507-0.715-0.714c-0.005-0.168,0.12-0.479,0.608-0.883
		c6.667-5.535,7.073-8.625,7.049-11.177c-0.001-1.021,0.278-2.138,0.794-3.263c0.47-1.034,1.136-2.079,1.955-3.068
		c-0.015,0.203-0.025,0.409-0.025,0.626c0,0.216,0.007,0.446,0.027,0.681c0.073,0.584,0.532,1.21,1.311,1.261
		c0.078,0,0.146-0.011,0.205-0.02l-0.14-0.782c-0.034,0.005-0.055,0.008-0.065,0.008c-0.083,0.003-0.224-0.06-0.338-0.187
		c-0.117-0.117-0.186-0.292-0.184-0.339c-0.018-0.218-0.025-0.423-0.025-0.624c0-0.65,0.079-1.229,0.206-1.764
		c0.018-0.084,0.044-0.17,0.067-0.275c0.525-2.023,1.835-3.599,2.127-6.208c0.397,1.123,0.822,2.222,1.17,3.28
		c0.46,1.395,0.794,2.718,0.794,3.917c-0.002,0.734-0.124,1.42-0.411,2.068c-0.039,0.091-0.077,0.163-0.109,0.213
		c-0.083-0.101-0.208-0.271-0.339-0.443c-0.211-0.254-0.506-0.592-1.01-0.603c-0.154,0-0.31,0.036-0.456,0.107l0.34,0.716
		c0.057-0.026,0.092-0.03,0.116-0.03c0.071-0.022,0.263,0.121,0.465,0.403c0.103,0.134,0.202,0.279,0.322,0.414
		c0.121,0.124,0.277,0.294,0.579,0.303c0.458-0.036,0.628-0.36,0.818-0.757c0.34-0.764,0.477-1.568,0.477-2.39
		c-0.001-1.248-0.316-2.541-0.736-3.858c1.701-1.084,2.51-2.107,3.266-3.963c0.034,0.609,0.091,1.277,0.169,2.112l0.057,0.606
		l0.533-0.297c1.421-0.806,3.178-1.846,4.307-3.165c-0.161,0.963-0.391,1.936-0.498,2.423l-0.112,0.503l0.516-0.023
		c0.322-0.016,0.685-0.021,1.068-0.021c0.511,0,1.058,0.006,1.596,0.006c0.728-0.009,1.42-0.009,2.018-0.071
		c-0.656,0.593-1.503,1.173-1.739,1.203l-0.943,0.229l0.834,0.497c1.178,0.699,3.142,1.912,4.988,2.832
		c-0.593,0.019-1.174,0.048-1.645,0.048c-0.276,0-0.515-0.012-0.678-0.035l-1.299-0.191l0.978,0.878
		c1.072,0.958,2.216,2.419,3.242,3.678c0.589,0.703,1.106,1.345,1.602,1.82c-1.09-0.001-2.106-0.074-2.456-0.176l-0.959-0.265
		l0.517,0.853c1.266,2.08,2.935,3.874,4.862,4.802c-0.53,0.285-0.912,0.692-1.209,0.988l-0.272,0.269l0.261,0.282
		c0.826,0.891,1.997,1.184,3.11,1.183c0.993,0,1.963-0.229,2.715-0.519c0.24-0.095,0.458-0.195,0.648-0.301
		c-0.063,0.286-0.176,0.529-0.327,0.748l-0.636,0.906l1.068-0.3c1.696-0.473,2.587-1.373,3.909-3.055
		c-0.113,1.028-0.525,1.813-0.908,2.608l0.715,0.342c0.43-0.899,1.018-1.977,1.018-3.499c0-0.174-0.008-0.354-0.022-0.542
		c-0.16-1.749-1.06-3.982-3.428-7.136c-5.246-6.963-10.131-8.564-11.359-11.244c-0.188-0.388-0.275-0.756-0.275-1.119
		c-0.03-1.524,1.693-3.207,5.17-4.447c3.455-1.24,8.537-2.043,14.919-2.042c10.071-0.001,23.384,2.002,38.695,7.342
		c-13.228-3.742-26.984-5.624-37.589-5.626c-8.859,0.024-15.499,1.252-17.956,4.079c-0.232,0.272-0.312,0.622-0.313,0.966
		c0.005,0.996,0.7,2.285,2.055,2.32c0.221,0,0.449-0.037,0.686-0.118c4.512-1.538,9.519-2.17,14.669-2.17
		c5.71,0,11.594,0.78,17.168,1.962c-4.907-0.7-9.507-0.963-13.552-0.963c-4.503,0.001-8.32,0.322-11.122,0.717
		c-1.397,0.199-2.544,0.416-3.397,0.622c-0.867,0.214-1.398,0.379-1.722,0.598c-0.313,0.216-0.481,0.58-0.475,0.92
		c0.052,1.074,1.172,2.103,2.519,2.14c0.208,0,0.421-0.027,0.636-0.09c2.273-0.665,4.767-0.95,7.359-0.95
		c4.099-0.001,8.439,0.715,12.539,1.761c-4.256-0.858-7.912-1.141-10.855-1.141c-4.01,0.001-6.691,0.523-7.799,0.837
		c-0.761,0.199-1.241,0.703-1.234,1.29c0.048,0.951,0.993,1.667,2.035,1.691h0.042c0.456-0.015,0.888-0.021,1.313-0.021
		c5.946,0.004,9.626,1.259,13.479,3.193c-4.501-1.677-7.633-2.303-9.953-2.305c-1.271,0-2.3,0.189-3.17,0.497
		c-0.476,0.148-0.748,0.616-0.729,1.024c0.043,0.944,0.865,1.962,1.97,2.016c0.036,0,0.076,0,0.124-0.003
		c0.294-0.027,0.581-0.042,0.866-0.042c2.132-0.008,4.034,0.709,5.757,1.771c-0.874-0.409-1.812-0.72-2.848-0.883
		c-0.578-0.091-1.06-0.135-1.466-0.135c-0.596,0.001-1.053,0.09-1.402,0.353c-0.354,0.269-0.488,0.698-0.481,1.108
		c0.026,1.421,1.172,3.541,1.526,6.466l0.787-0.098c-0.383-3.038-1.547-5.352-1.52-6.368c0.005-0.286,0.061-0.387,0.172-0.478
		c0.116-0.096,0.402-0.192,0.917-0.19c0.347,0,0.794,0.039,1.344,0.126c3.38,0.513,5.729,2.807,8.341,5.078
		c-1.279-0.402-2.58-0.622-3.715-0.623c-0.896,0.003-1.695,0.134-2.313,0.464c-0.621,0.321-1.061,0.923-1.05,1.672
		c0.004,0.776,0.399,1.647,1.218,2.699l0.624-0.49v-0.001c-0.769-0.976-1.056-1.726-1.052-2.209
		c0.012-0.456,0.199-0.724,0.634-0.973c0.436-0.239,1.123-0.373,1.939-0.371c1.736-0.003,4.034,0.589,5.868,1.594
		c0.515,0.385,1.056,0.75,1.618,1.086l0.165-0.268l0.297-0.372c-0.159-0.138-0.326-0.264-0.492-0.389
		c-0.001-0.003-0.006-0.005-0.009-0.008c-1.773-1.423-3.229-3.44-3.195-4.587c0.008-0.405,0.128-0.67,0.469-0.91
		c0.342-0.238,0.967-0.417,1.93-0.415c1.436-0.002,3.607,0.385,6.66,1.341c1.252,0.432,2.664,0.81,4.069,1.06
		c-0.603,0.404-0.926,0.985-0.934,1.528c-0.001,0.113,0.017,0.227,0.052,0.334c0.137,0.296,0.292,0.323,0.441,0.404
		c0.522,0.22,1.484,0.392,2.507,0.604c0.455,0.091,0.919,0.19,1.333,0.294c-0.066,0.055-0.131,0.111-0.193,0.169
		c-0.318,0.323-0.562,0.648-0.583,1.073c-0.001,0.116,0.032,0.261,0.124,0.382c0.536,0.584,1.415,0.793,2.305,1.002
		c0.405,0.086,0.814,0.164,1.179,0.235c-0.095,0.153-0.151,0.334-0.152,0.53c-0.003,0.271,0.111,0.547,0.322,0.774
		c0.749,0.768,2.818,1.604,3.623,1.955c2.008,3.872,5.735,6.362,10.17,7.901c-1.192,0.285-2.876,0.549-4.613,0.705
		c0.274-0.403,0.516-0.842,0.637-1.179l-0.752-0.244c-0.092,0.323-0.604,1.126-0.936,1.501c-0.63,0.038-1.258,0.063-1.858,0.063
		c-0.212,0-0.423-0.005-0.63-0.01c-0.529-0.013-1.116-0.043-1.722-0.083c0.606-0.537,1.11-1.267,1.229-2.166l-0.786-0.081
		c-0.054,0.892-0.911,1.708-1.672,2.151c-2.121-0.187-4.278-0.48-5.28-0.729c0.106-0.154,0.236-0.327,0.404-0.529
		c0.513-0.645,1.087-1.211,1.111-2.035c-0.009-0.749-0.539-1.4-1.647-2.131l-0.437,0.661c1.054,0.691,1.299,1.169,1.291,1.47
		c0.023,0.356-0.375,0.876-0.93,1.533c-0.594,0.726-0.925,1.242-0.93,1.858c0.001,0.229,0.053,0.445,0.134,0.66
		c-0.082,0.034-0.16,0.076-0.234,0.131c-0.238,0.187-0.39,0.433-0.495,0.757c-0.415,0.078-0.934,0.143-1.498,0.187
		c-0.079-0.271-0.208-0.518-0.411-0.721c-0.375-0.372-0.923-0.542-1.596-0.54c-0.63-0.002-1.151,0.146-1.519,0.493
		c-0.212,0.203-0.34,0.457-0.418,0.738c-0.51-0.039-0.996-0.089-1.416-0.156c-0.102-0.017-0.197-0.034-0.289-0.05
		c-0.104-0.301-0.25-0.541-0.479-0.708c-0.11-0.08-0.227-0.128-0.345-0.168c0.004-0.002,0.006-0.005,0.009-0.008
		c0.388-0.271,1.098-0.49,1.786-0.69c0.695-0.214,1.356-0.378,1.797-0.773c0.167-0.153,0.311-0.384,0.309-0.661
		c-0.054-0.696-0.62-1.146-1.788-1.889c-1.036-0.639-1.477-1.309-1.475-1.944c-0.042-1.049,1.337-2.565,4.617-3.966l-0.313-0.728
		h-0.001c-3.339,1.459-5.052,2.994-5.094,4.692c0.002,1.034,0.704,1.921,1.853,2.619c0.563,0.345,0.942,0.631,1.161,0.85
		c0.072,0.071,0.119,0.128,0.155,0.182c-0.646-0.008-2.036-0.059-3.055-0.264c0.157-0.203,0.241-0.437,0.233-0.678
		c0-0.102-0.013-0.195-0.028-0.279l-0.779,0.146c0.01,0.054,0.016,0.1,0.016,0.133c-0.016,0.15-0.016,0.244-0.447,0.448
		c-0.526,0.228-1.634,0.402-3.537,0.398c-1.093,0-2.456-0.055-4.131-0.171c0.636-0.385,1.238-0.839,1.771-1.385l-0.567-0.554
		c-0.79,0.808-1.738,1.421-2.765,1.87c-1.882,0.828-4.036,1.118-5.947,1.117c-0.368,0-0.723-0.012-1.07-0.031
		c1.52-0.368,2.758-0.794,3.689-1.29c1.186-0.634,1.946-1.434,1.954-2.453c-0.009-0.913-0.616-1.766-1.689-2.661
		c-0.338-0.28-0.675-0.566-0.675-0.566l-0.471,0.571c0,0,0.42,0.357,0.697,0.593c1.148,0.978,1.354,1.543,1.343,2.064
		c0.009,0.564-0.439,1.165-1.534,1.753c-1.081,0.58-2.73,1.096-4.857,1.517c-0.304,0.052-0.572,0.258-0.675,0.502
		c-0.071,0.158-0.087,0.311-0.087,0.45c0.007,0.351,0.101,0.703,0.167,1.01c-0.03-0.001-0.059-0.012-0.09-0.012
		c-0.359,0-0.712,0.028-1.026,0.258c-0.234,0.184-0.385,0.421-0.49,0.735c-0.176,0.014-0.358,0.025-0.553,0.034
		c-0.31,0.017-0.645,0.032-0.993,0.046c-0.08-0.22-0.197-0.423-0.365-0.591c-0.375-0.373-0.923-0.542-1.599-0.541
		c-0.628-0.002-1.151,0.146-1.518,0.495c-0.197,0.187-0.323,0.419-0.403,0.677c-0.501-0.016-0.967-0.039-1.361-0.073
		c-0.127-0.013-0.236-0.026-0.347-0.041c-0.105-0.314-0.256-0.564-0.491-0.74c-0.151-0.108-0.31-0.17-0.475-0.209
		c0.072-0.626,0.549-1.522,2.967-2.026c0.272-0.057,0.57-0.104,0.897-0.144c1.949-0.243,3.239-0.624,4.081-1.104
		c0.841-0.471,1.262-1.115,1.258-1.774C81.527,56.838,81.067,56.232,80.557,55.789 M38.22,67.068
		c0.083,0.024,0.17,0.042,0.265,0.042c0.716-0.042,1.311-0.612,2.315-1.868c2.045-2.633,2.975-5.944,3.721-9.072
		c0.736-3.129,1.297-6.088,2.466-7.973c0.009-0.015,0.01-0.032,0.017-0.048c0.237-0.29,0.478-0.588,0.732-0.906
		c0.55-0.682,1.028-0.879,1.4-0.88c0.339-0.002,0.662,0.177,0.909,0.465c-2.02,2.009-2.769,4.861-3.77,8.062
		c-1.027,3.299-2.304,6.993-5.366,10.658c-0.932,1.117-1.888,2.282-2.609,3.342v-0.007C38.3,68.313,38.271,67.689,38.22,67.068
		 M43.829,55.639c-1.139-0.251-1.597-0.463-2.016-1.887c0.943-0.789,1.962-1.801,3.376-3.434
		C44.657,51.923,44.271,53.756,43.829,55.639 M43.375,36.3c-0.008-1.74,0.636-4.183,0.873-6.382
		c0.673,1.684,1.392,2.927,1.771,3.982c-0.002,0.01-0.004,0.019-0.007,0.028c-1.027,1.075-1.887,2.242-2.529,3.431
		C43.41,37.056,43.373,36.701,43.375,36.3 M121.997,31.889c-9.186-3.546-22.697-7.381-35.467-7.384
		c-5.215,0-10.306,0.641-14.923,2.212c-0.16,0.055-0.302,0.074-0.432,0.074c-0.377-0.002-0.67-0.186-0.905-0.49
		c-0.229-0.301-0.36-0.714-0.357-1.036c-0.002-0.217,0.059-0.382,0.123-0.453c2.009-2.433,8.583-3.823,17.354-3.798
		c12.044-0.001,28.27,2.455,43.066,7.33c-1.169-0.167-2.246-0.255-3.194-0.257c-1.742,0.003-3.106,0.256-4.073,0.698
		c-0.957,0.436-1.579,1.117-1.582,1.962C121.616,31.148,121.753,31.527,121.997,31.889 M109.741,35.83
		c-6.292-2.839-16.556-6.361-25.796-6.367c-2.651,0.001-5.217,0.292-7.583,0.983c-0.137,0.039-0.275,0.056-0.413,0.056
		c-0.441,0.001-0.892-0.201-1.22-0.491c-0.333-0.282-0.515-0.653-0.507-0.856c0.008-0.126,0.032-0.185,0.146-0.275
		c0.082-0.072,0.629-0.285,1.442-0.473c2.467-0.596,7.639-1.316,14.334-1.315c7.511-0.001,16.949,0.91,26.703,3.891
		c-0.847-0.103-1.641-0.153-2.367-0.153c-1.705,0-3.062,0.259-4.037,0.745c-0.971,0.476-1.591,1.25-1.589,2.186
		C108.867,34.44,109.164,35.13,109.741,35.83 M99.577,40.25c-6.606-3.559-10.69-6.375-19.592-6.371
		c-0.431,0-0.874,0.008-1.326,0.021h-0.029c-0.319,0.002-0.65-0.131-0.888-0.324c-0.243-0.192-0.359-0.435-0.354-0.574
		c0.008-0.142,0.061-0.34,0.66-0.528c1.014-0.29,3.643-0.806,7.581-0.806c5.14,0,12.522,0.887,21.537,4.28
		c-0.431-0.037-0.852-0.06-1.256-0.06c-3.722,0.019-6.402,1.479-6.476,3.58C99.433,39.733,99.483,39.995,99.577,40.25
		 M93.701,44.231c-2.869-2.806-6.408-5.95-11.129-5.971c-0.308,0.001-0.618,0.014-0.935,0.043c-0.009,0.001-0.029,0.003-0.055,0.003
		c-0.243,0.004-0.555-0.161-0.796-0.426c-0.241-0.257-0.387-0.603-0.38-0.798c0.019-0.169,0.018-0.196,0.198-0.276
		c0.781-0.276,1.714-0.454,2.907-0.455c3.078-0.003,7.884,1.191,15.952,4.88c-1.116-0.216-2.053-0.32-2.828-0.32
		c-1.054,0.002-1.827,0.18-2.377,0.549c-0.553,0.367-0.822,0.964-0.814,1.567C93.451,43.414,93.543,43.818,93.701,44.231
		 M123.222,37.374c0.069-0.435,0.259-1.001,0.771-1.288l0.317-0.153c1.463-0.496,3.065-0.739,4.938-0.743
		c0.007,0,0.014,0.001,0.021,0.001c-0.29,0.185-0.551,0.404-0.758,0.661l0.628,0.483c0.379-0.526,1.474-0.998,2.063-0.991
		c1.719,0.269,3.287,0.893,4.639,1.796c-0.127-0.005-0.251-0.011-0.377-0.012c-0.596,0-1.175,0.051-1.596,0.127l0.145,0.78
		c0.354-0.066,0.902-0.116,1.452-0.116c0.67-0.004,1.365,0.085,1.67,0.229c1.224,1.098,2.203,2.458,2.865,3.992
		c-0.476-0.279-1.022-0.466-1.567-0.504l-0.042,0.791c0.939,0.023,2.003,0.769,2.187,1.383l0.093,0.277
		c0.247,0.968,0.322,1.833,0.322,2.882c0,0.662-0.051,1.318-0.146,1.963c-0.3-0.564-0.753-1.059-1.357-1.341l-0.328,0.721h-0.001
		c0.771,0.333,1.316,1.373,1.306,2.208c0,0.069-0.004,0.138-0.013,0.207c-0.416,1.4-1.072,2.726-1.974,3.95
		c0-0.019,0.002-0.035,0.002-0.053c-0.001-0.762-0.103-1.625-0.259-2.324l-0.775,0.172l-0.001-0.001
		c0.144,0.639,0.224,1.463,0.242,2.153c0.021,0.764-0.157,1.203-0.157,1.203c-0.795,0.866-1.732,1.663-2.805,2.381
		c0.047-0.322,0.076-0.672,0.078-1.046c-0.001-0.39-0.026-0.796-0.079-1.202l-0.786,0.104h-0.003
		c0.053,0.369,0.076,0.743,0.076,1.098c0.004,0.733-0.123,1.389-0.274,1.665c-0.446,0.257-0.912,0.5-1.398,0.732
		c-3.113-1.102-5.757-2.692-7.647-4.614c2.85-0.082,5.292-0.547,7.099-1.754c1.971-1.31,3.075-3.439,3.031-5.959
		c-0.061-3.599-3.093-6.466-6.474-6.703c-1.955-0.137-3.642,0.511-5.134,1.766c-1.49,1.251-2.486,3.115-2.484,5.548
		c-0.001,2.607,1.047,5.004,2.825,7.042c2.062,2.354,5.099,4.243,8.707,5.492c3.108,1.076,6.643,1.677,10.343,1.677
		c0.849,0,1.709-0.03,2.572-0.097l0.387-0.028l-0.021-0.388c-0.073-0.462-0.375-0.59-0.677-0.767
		c3.445,0.395,7.821,1.354,10.964,2.419c-0.343-0.016-0.695-0.028-1.05-0.028c-3.587,0.003-7.752,0.808-10.762,1.219
		c0.319-0.162,0.615-0.328,0.861-0.493c0.326-0.25,0.609-0.382,0.699-0.84l0.038-0.448l-0.446,0.019
		c-0.871,0.032-1.752,0.051-2.641,0.051c-4.38,0-8.941-0.44-12.979-1.575l-0.092-0.026l-0.003-0.014
		c-0.008,0.001-0.011,0.003-0.018,0.005c-5.13-1.463-9.379-4.041-11.454-8.23c-0.886-1.784-1.385-3.876-1.385-6.334
		c0.014-4.018,2.053-7.846,6.036-9.853c-0.09,0.209-0.153,0.415-0.19,0.591L123.222,37.374z M123.981,54.158
		c-1.573-1.879-2.46-4.009-2.46-6.32c0.005-4.401,3.79-6.664,6.493-6.56c2.842,0.109,5.844,2.265,6.015,5.875
		c0.098,2.052-0.954,4.246-2.706,5.431C129.574,53.76,127.051,54.156,123.981,54.158 M110.404,63.474
		c0.076-0.063,0.235-0.104,0.543-0.104h0.012c0.258,0.007,0.416,0.101,0.571,0.327c0.152,0.231,0.254,0.607,0.253,1.073
		c0.003,1.103-0.562,2.634-1.849,3.805c0.003-2.405,0.041-3.789,0.197-4.502C110.216,63.674,110.323,63.529,110.404,63.474
		 M107.249,64.502c0.009,0.91-0.511,2.355-1.269,3.971c-0.804-1.783-1.285-3.207-1.278-4.066c0.001-0.421,0.101-0.667,0.26-0.818
		c0.161-0.157,0.453-0.275,0.972-0.275c0.553,0.001,0.863,0.134,1.037,0.309C107.144,63.794,107.247,64.069,107.249,64.502
		 M87.19,63.845v7.439h-6.228v-1.721c1.797-1.364,2.604-3.298,2.608-4.792c-0.001-0.576-0.117-1.095-0.38-1.505
		c-0.081-0.126-0.185-0.235-0.299-0.333c-0.03-0.447-0.161-0.878-0.204-1.175c0.766,0.104,1.632,0.17,2.562,0.17
		c1.958-0.002,4.17-0.292,6.166-1.145c2.292,0.184,4.08,0.267,5.473,0.267c1.784-0.002,2.904-0.131,3.643-0.386
		c0.8,0.28,1.935,0.397,2.842,0.445c-0.328,0.101-0.689,0.206-1.035,0.314c-0.472,0.154-0.931,0.326-1.307,0.582
		c-0.225,0.15-0.422,0.358-0.551,0.611c-0.391,0.082-0.724,0.321-0.93,0.649c-0.266,0.409-0.381,0.928-0.383,1.504
		c0.004,1.489,0.805,3.415,2.59,4.776v1.738h-6.229l0.001-7.439L87.19,63.845L87.19,63.845z M80.928,68.575
		c0.003-2.405,0.041-3.789,0.196-4.502c0.086-0.399,0.194-0.544,0.274-0.599c0.077-0.063,0.235-0.104,0.542-0.104h0.014
		c0.259,0.007,0.415,0.101,0.572,0.328c0.15,0.229,0.252,0.606,0.251,1.072C82.78,65.873,82.215,67.405,80.928,68.575 M99.96,64.77
		c-0.001-0.465,0.104-0.843,0.254-1.072c0.157-0.229,0.313-0.321,0.575-0.328h0.022c0.299,0,0.457,0.042,0.533,0.104
		c0.122,0.068,0.302,0.411,0.375,1.354c0.072,0.807,0.089,2.008,0.09,3.75C100.523,67.405,99.956,65.875,99.96,64.77 M78.244,64.502
		c0.009,0.91-0.511,2.356-1.269,3.971c-0.804-1.783-1.287-3.207-1.279-4.066c0.001-0.421,0.101-0.667,0.263-0.818
		c0.158-0.157,0.45-0.275,0.969-0.276c0.556,0.002,0.865,0.135,1.039,0.31C78.139,63.794,78.243,64.069,78.244,64.502
		 M72.336,63.474c0.121,0.068,0.303,0.413,0.377,1.355c0.071,0.806,0.089,2.007,0.091,3.747c-1.288-1.171-1.853-2.703-1.849-3.805
		c-0.002-0.466,0.104-0.843,0.253-1.072c0.157-0.228,0.314-0.321,0.573-0.328h0.012C72.102,63.371,72.26,63.411,72.336,63.474
		 M73.68,72.341v-7.439h1.264c0.016,0.126,0.039,0.26,0.065,0.393c0.006,0.034,0.011,0.066,0.018,0.101
		c0.026,0.122,0.058,0.252,0.091,0.382c0.012,0.051,0.025,0.101,0.04,0.151c0.036,0.123,0.073,0.252,0.114,0.382
		c0.02,0.064,0.041,0.125,0.062,0.191c0.042,0.125,0.086,0.252,0.133,0.383c0.028,0.077,0.057,0.156,0.086,0.233
		c0.047,0.124,0.095,0.25,0.146,0.38c0.038,0.094,0.078,0.19,0.119,0.287c0.049,0.12,0.098,0.239,0.151,0.363
		c0.053,0.126,0.11,0.255,0.167,0.384c0.046,0.101,0.088,0.203,0.135,0.305c0.107,0.238,0.218,0.482,0.334,0.731l0.349,0.746
		l0.365-0.738c0.113-0.227,0.221-0.454,0.326-0.678c0.054-0.115,0.105-0.228,0.156-0.341c0.049-0.104,0.098-0.209,0.144-0.31
		c0.064-0.145,0.125-0.284,0.184-0.425c0.029-0.068,0.059-0.137,0.087-0.204c0.064-0.156,0.124-0.309,0.183-0.457
		c0.018-0.05,0.038-0.098,0.054-0.146c0.061-0.161,0.116-0.316,0.168-0.472c0.012-0.035,0.023-0.071,0.034-0.107
		c0.053-0.16,0.1-0.319,0.143-0.476l0.019-0.072c0.044-0.161,0.079-0.32,0.11-0.475c0.002-0.012,0.004-0.024,0.007-0.035
		c0.031-0.163,0.055-0.321,0.071-0.475h0.899v7.439h8.341v-7.439h6.226l0.001,7.439h8.342v-7.439h1.14
		c0.018,0.143,0.042,0.291,0.074,0.443c0.002,0.014,0.004,0.026,0.007,0.041c0.028,0.143,0.065,0.295,0.107,0.448l0.017,0.072
		c0.042,0.147,0.086,0.299,0.136,0.454c0.012,0.036,0.023,0.07,0.035,0.108c0.048,0.148,0.102,0.299,0.157,0.456
		c0.019,0.049,0.039,0.101,0.058,0.153c0.056,0.146,0.11,0.295,0.171,0.447c0.03,0.073,0.063,0.15,0.092,0.221
		c0.056,0.139,0.111,0.276,0.172,0.418c0.049,0.113,0.102,0.229,0.152,0.346c0.049,0.111,0.096,0.221,0.146,0.335
		c0.106,0.233,0.217,0.475,0.333,0.723l0.348,0.745l0.365-0.737c0.112-0.227,0.221-0.452,0.325-0.673
		c0.062-0.132,0.122-0.261,0.181-0.393c0.038-0.083,0.079-0.167,0.115-0.25c0.077-0.169,0.146-0.333,0.216-0.499
		c0.017-0.041,0.034-0.08,0.052-0.122c0.074-0.179,0.144-0.356,0.209-0.529c0.009-0.023,0.018-0.044,0.027-0.067
		c0.069-0.183,0.131-0.359,0.189-0.536l0.014-0.04c0.057-0.18,0.11-0.356,0.156-0.527c0.002-0.008,0.004-0.016,0.007-0.022
		c0.046-0.176,0.085-0.346,0.117-0.511c0.001-0.004,0.001-0.009,0.002-0.015c0.034-0.167,0.057-0.329,0.073-0.486
		c0-0.001,0.001-0.003,0.001-0.004h1.034v7.439h8.339v-7.439h6.227v13.745h-64.5V64.902h6.229l0.001,7.439H73.68L73.68,72.341z
		 M103.544,120.329v8.677h-7.431l0.001-8.677h-4.2V79.701h24.41l0.002,49.304h-3.274v-8.677L103.544,120.329L103.544,120.329z
		 M66.396,79.701h24.46v40.628h-4.25v8.677h-7.431v-8.677h-9.51v8.677h-3.27V79.701z M142.959,137.685v45.162
		c-4.77-1.525-9.853-2.354-15.13-2.354c-3.584,0-7.079,0.394-10.446,1.118v-43.926H142.959z M100.561,149.642
		c-2.454-2.454-5.729-3.668-9.004-3.668c-6.627-0.024-13.333,5.022-13.411,14.661v18.57c-3.101,0.855-6.08,2-8.906,3.407
		c-0.936-0.281-1.885-0.531-2.842-0.76v-44.167h49.929v44.167c-0.96,0.228-1.911,0.478-2.847,0.76
		c-2.81-1.401-5.771-2.542-8.854-3.395v-18.577C104.628,155.789,103.017,152.098,100.561,149.642 M82.405,160.076
		c-0.061,5.51-0.033,13.198,0.001,18.151c-1.082,0.198-2.148,0.433-3.204,0.696v-18.283c0.114-9.109,6.25-13.585,12.355-13.609
		c6.034,0.027,11.986,4.385,12.012,13.609v18.299c-1.055-0.267-2.124-0.502-3.206-0.7c0.017-6.144,0.038-15.718,0.038-18.163
		C99.988,146.92,82.542,147.183,82.405,160.076 M39.761,137.685h25.578v43.928c-3.369-0.728-6.861-1.118-10.446-1.118
		c-5.278,0-10.36,0.828-15.132,2.354V137.685z M174.585,122.859c0.001,22.514-7.958,44.764-22.413,62.635
		c-0.258,0.317-0.518,0.63-0.779,0.942c-2.448-1.323-5.021-2.443-7.695-3.345c0.105,0.034,0.212,0.067,0.317,0.104v-45.51h2.914
		v-17.355h-9.508v8.677h-7.431v-8.677h-9.508v8.677h-3.099V79.701h7.284V63.846h-8.341v7.439h-6.228v-1.828
		c1.703-1.358,2.473-3.229,2.476-4.686c-0.001-0.577-0.116-1.096-0.38-1.504c-0.254-0.407-0.704-0.689-1.223-0.688
		c-0.099-0.224-0.146-0.395-0.146-0.534c0-0.035,0.001-0.07,0.005-0.106c1.588,0.428,5.704,0.892,8.555,0.974
		c0.21,0.006,0.428,0.009,0.648,0.009c3.287-0.003,7.175-0.599,8.857-1.195l-0.003-0.011l0.571,0.171
		c4.106,1.138,8.68,1.57,13.071,1.571c0.523-0.001,1.043-0.007,1.56-0.018c-0.277,0.161-0.605,0.331-0.934,0.473
		c-0.802,0.374-2.068,0.706-2.071,0.704l-0.041,0.78c0.05,0.008,0.344,0.007,0.344,0.007c2.901-0.006,8.695-1.456,13.393-1.452
		c1.609-0.001,3.079,0.17,4.224,0.607l0.349-0.708h-0.001c-3.333-2.001-12.638-4.052-17.408-4.066
		c-0.349,0.001-0.674,0.01-0.974,0.036l0.018,0.79c0.589,0.022,1.609,0.21,2.447,0.458c0.174,0.051,0.344,0.106,0.499,0.163
		c-0.446,0.017-0.889,0.026-1.33,0.026c-3.265,0-6.394-0.485-9.191-1.348c4.103-2.147,6.718-5.319,7.796-8.953
		c0,0,0.024-0.083,0.025-0.083c0-0.001,0-0.002,0.001-0.002c0.362-1.259,0.545-2.566,0.545-3.904c0-3.742-1.555-7.126-4.138-9.431
		l0.005-0.006c-0.021-0.02-0.043-0.034-0.065-0.047c-1.672-1.483-3.773-2.509-6.141-2.904c0,0-0.117-0.028-0.195-0.03
		c-0.647-0.1-1.316-0.155-1.999-0.155c-4.342-0.001-7.718,1.45-9.994,3.699c-2.277,2.247-3.451,5.276-3.449,8.396
		c0,2.186,0.385,4.118,1.08,5.82c-0.942-0.42-2.207-1.041-2.538-1.418c-0.097-0.107-0.111-0.176-0.114-0.232
		c0.001-0.112,0.118-0.267,0.352-0.271c0.027,0,0.059,0.004,0.093,0.011l0.216-0.759c-0.563-0.211-1.449-0.333-2.309-0.521
		c-0.777-0.159-1.515-0.411-1.794-0.656c0.011-0.031,0.032-0.074,0.061-0.126c0.171-0.321,0.688-0.719,0.993-0.693
		c0.055,0.001,0.106,0.01,0.16,0.028l0.31-0.728c-0.744-0.355-2.016-0.598-3.161-0.834c-0.568-0.115-1.1-0.224-1.482-0.326
		c-0.189-0.051-0.345-0.099-0.437-0.142c-0.004-0.001-0.009-0.003-0.015-0.004v-0.006c0.003-0.379,0.548-1.266,2.063-1.267
		c0.018,0,0.041,0.001,0.07,0.004l0.047-0.792c-1.911-0.159-4.053-0.663-5.837-1.278c-0.317-0.154-0.627-0.306-0.942-0.459
		c-0.441-0.223-0.876-0.445-1.297-0.665c-0.806-0.611-1.1-1.197-1.1-1.706c-0.003-0.634,0.471-1.324,1.467-1.874
		c0.988-0.546,2.447-0.916,4.217-0.915c1.81-0.001,3.945,0.382,6.243,1.332l0.014,0.005l0.031,0.01c0,0,0.01,0.005,0.025,0.011
		c0.015,0.008,0.032,0.014,0.046,0.021v0.001c0.018,0.009,0.039,0.02,0.06,0.028c0.487,0.221,0.954,0.439,1.427,0.666
		c0.003,0.002,0.007,0.003,0.011,0.006c0.003,0.001,0.008,0.003,0.011,0.005l0.375-0.699c-0.008-0.003-0.015-0.008-0.02-0.011
		c-0.003-0.001-0.006-0.003-0.008-0.006c-0.363-0.214-0.778-0.445-1.243-0.693c-2.313-1.384-3.256-2.733-3.23-3.594
		c0.002-0.567,0.334-1.061,1.147-1.478c0.807-0.405,2.061-0.662,3.683-0.661c2.591-0.001,6.114,0.645,10.302,2.241l0.256-0.633
		l0.044-0.103h-0.001c-1.943-0.815-2.714-1.791-2.682-2.378c-0.005-0.406,0.297-0.855,1.119-1.24
		c0.813-0.375,2.079-0.627,3.742-0.627c3.101,0,7.579,0.864,13.173,3.239c0.002,0.001,0.004,0.002,0.006,0.002l0.007,0.004h0.001
		l0.003,0.001l0.322-0.724c-21.921-10.171-41.021-13.69-54.492-13.691c-6.449,0.001-11.605,0.805-15.189,2.089
		c-3.556,1.284-5.66,3.045-5.691,5.191c0,0.49,0.118,0.982,0.352,1.463c1.596,3.164,6.307,4.513,11.439,11.375
		c2.197,2.923,3.041,4.969,3.242,6.476c-1.401,1.82-2.118,2.722-3.248,3.253c0.068-0.26,0.104-0.537,0.103-0.833
		c0.001-0.129-0.007-0.261-0.02-0.401l-0.698-0.019l-0.077-0.044c0,0-0.002,0.006-0.004,0.016c-0.055,0.083-0.511,0.411-1.116,0.614
		c-0.647,0.238-1.486,0.418-2.299,0.418c-0.847-0.001-1.65-0.191-2.247-0.669c0.442-0.426,0.923-0.795,1.656-0.795l0.104-0.779
		c-1.911-0.516-3.724-2.121-5.123-4.175c0.524,0.043,1.166,0.064,1.849,0.065c0.392,0,0.794-0.007,1.187-0.022l0.071-0.783
		c-0.358-0.034-1.346-1.053-2.339-2.307c-0.803-0.98-1.681-2.102-2.58-3.04c0.665-0.012,1.438-0.06,2.14-0.06
		c0.453,0,0.874,0.022,1.195,0.079l0.208-0.761c-1.856-0.68-4.445-2.225-6.129-3.236c0.821-0.496,1.84-1.377,2.29-2.136
		l-0.567-0.519c-0.286,0.226-1.596,0.334-2.923,0.316c-0.534,0-1.079-0.007-1.596-0.007c-0.202,0-0.398,0.001-0.588,0.005
		c0.22-0.982,0.583-2.645,0.585-3.812l-0.772-0.126c-0.479,1.509-2.542,2.967-4.362,4.015c-0.098-1.114-0.146-1.898-0.146-2.735
		c0-0.291,0.004-0.591,0.018-0.909l-0.772-0.142c-1.097,3.238-1.559,4.229-3.526,5.542c-0.677-1.965-1.521-3.984-1.96-5.973
		c-0.006-0.028-0.011-0.055-0.017-0.085h-0.001v-0.001l-0.775,0.166c0.182,0.865,0.258,1.622,0.258,2.301
		c0.007,2.532-1.07,4.039-1.817,6.008c-0.616-1.376-1.495-2.952-2.126-5.208l-0.775,0.153c0.031,0.261,0.047,0.538,0.047,0.832
		c0.005,2.316-0.951,5.471-0.958,7.787c0.001,0.761,0.114,1.45,0.444,2.012c-0.499,1.146-0.789,2.298-0.789,3.402
		c-0.022,2.417-0.187,5.034-6.766,10.565c-0.573,0.481-0.887,0.97-0.892,1.496c0.012,0.711,0.571,1.165,1.186,1.438
		c0.633,0.278,1.414,0.418,2.169,0.419c0.687-0.003,1.342-0.119,1.863-0.41c0.776,1.048,1.859,1.362,2.802,1.362
		c0.021,0,0.041,0,0.06-0.001c0.343,0,0.661-0.035,0.963-0.074c-0.716,2.943-1.635,5.922-3.447,8.248
		c-0.932,1.235-1.574,1.605-1.689,1.562c-0.043-0.002-0.088-0.002-0.212-0.219c-0.104-0.201-0.203-0.541-0.289-0.926
		c-0.014-0.073-0.022-0.097-0.022-0.097c0.001-0.006-0.003-0.009-0.003-0.015h0.002c-0.044-0.219-0.084-0.435-0.138-0.633
		l-0.77,0.19c0.045,0.189,0.083,0.382,0.124,0.569c0.001,0.003,0.001,0.005,0.002,0.008c0.013,0.075,0.024,0.105,0.023,0.106
		c0,0.001,0.001,0.003,0.001,0.003v0.002l-0.001-0.001c0.192,1.07,0.304,2.457,0.303,3.578c0.001,0.678-0.044,1.267-0.12,1.598
		l0.747,0.252c0.548-1.21,1.988-3.01,3.384-4.676c3.165-3.786,4.482-7.618,5.514-10.931c0.968-3.126,1.716-5.758,3.407-7.549
		c0.037,0.14,0.057,0.282,0.056,0.417c0,0.101-0.009,0.195-0.028,0.283c-0.216,1-1.902,3.854-1.902,7.364
		c0,0.734,0.072,1.498,0.248,2.285c0.02,0.093,0.042,0.175,0.1,0.276c0.044,0.091,0.202,0.242,0.398,0.242
		c0.003,0,0.009-0.001,0.012-0.001c0.273-0.022,0.341-0.142,0.427-0.211c0.491-0.501,1.258-1.928,3.736-1.995l0.176-0.746
		c-0.517-0.268-1.266-0.495-1.877-0.76c-0.304-0.13-0.575-0.268-0.735-0.396c-0.17-0.132-0.191-0.214-0.187-0.23
		c0-0.004,0-0.02,0.012-0.05l0.011-0.027l0.009-0.028c0.158-0.686,1.113-2.212,2.022-3.872c0.907-1.677,1.795-3.528,1.802-5.175
		c0.017-0.951-0.343-1.849-1.147-2.487c0.32-0.207,0.591-0.517,0.811-0.881c0.383-0.642,0.62-1.484,0.621-2.379
		c0-0.482-0.069-0.98-0.23-1.47c0.561,0.202,1.207,0.309,1.864,0.313c0.592-0.001,1.196-0.098,1.758-0.311
		c-0.07,0.708-0.109,1.47-0.109,2.265c0,2.961,0.535,6.404,2.007,9.449c0.499,1.028,1.292,2.266,2.369,3.544
		c2.265,2.699,5.792,5.6,10.452,7.062c0.016,0.003,0.436,0.126,0.596,0.171c-1.538,0.61-2.109,1.561-2.165,2.38
		c-0.421,0.071-0.782,0.314-0.998,0.659c-0.264,0.409-0.38,0.928-0.381,1.506c0.003,1.45,0.767,3.314,2.458,4.672v1.84h-6.228
		v-7.439h-8.341v15.852h7.284v49.304h-3.1v-8.677h-9.509v8.677h-7.429v-8.677H35.79v17.355h2.911v45.507
		c0.109-0.036,0.22-0.069,0.327-0.105c-2.676,0.902-5.252,2.021-7.704,3.347c-0.259-0.311-0.522-0.623-0.777-0.94
		c-14.454-17.869-22.412-40.119-22.412-62.633V13.13h166.45V122.859z M141.24,64.989l0.005-0.005l0.002,0.024L141.24,64.989
		l-0.014,0.016l-0.007-0.074l0.012,0.036v0.031L141.24,64.989z M40.41,50.482c-0.103,0-0.202,0.029-0.288,0.084
		c-1.241,0.73-2.066,1.96-2.107,2.829c0,0.052,0.001,0.119,0.021,0.2l0.771-0.189l0.001-0.011c-0.022-0.184,0.201-0.672,0.583-1.161
		c1.033-0.115,1.564-0.561,1.584-1.13C40.976,50.829,40.802,50.495,40.41,50.482 M134.012,38.035L134.012,38.035L134.012,38.035
		L134.012,38.035z M140.942,65.289L140.942,65.289L140.942,65.289L140.942,65.289z"/>
	<path fill="#009640" d="M145.543,61.534l0.021,0.389l-0.387,0.029c-0.864,0.065-1.724,0.096-2.572,0.096
		c-3.702,0-7.236-0.6-10.345-1.676c-3.608-1.25-6.644-3.14-8.707-5.494c-1.777-2.036-2.825-4.433-2.823-7.041
		c-0.003-2.434,0.995-4.298,2.484-5.548c1.492-1.254,3.179-1.904,5.133-1.767c3.382,0.238,6.414,3.106,6.474,6.704
		c0.045,2.52-1.06,4.648-3.032,5.96c-1.806,1.206-4.248,1.669-7.098,1.753c1.891,1.922,4.535,3.512,7.646,4.614
		c0.487-0.23,0.954-0.476,1.398-0.732c0.153-0.277,0.279-0.931,0.273-1.664c0-0.355-0.022-0.729-0.072-1.098h0.001l0.785-0.104
		c0.053,0.405,0.079,0.812,0.08,1.203c-0.003,0.375-0.03,0.725-0.079,1.046c1.075-0.717,2.01-1.517,2.806-2.38
		c0,0,0.178-0.438,0.157-1.203c-0.019-0.689-0.099-1.515-0.242-2.153l0.001,0.001l0.774-0.172c0.156,0.7,0.259,1.562,0.26,2.324
		c0,0.018-0.002,0.034-0.002,0.053c0.902-1.223,1.559-2.549,1.973-3.95c0.009-0.07,0.015-0.138,0.015-0.208
		c0.009-0.832-0.535-1.875-1.306-2.207h0.001l0.328-0.721c0.604,0.282,1.057,0.775,1.357,1.34c0.095-0.643,0.146-1.299,0.146-1.962
		c0-1.048-0.077-1.916-0.322-2.881l-0.093-0.278c-0.184-0.614-1.249-1.358-2.186-1.383l0.039-0.791
		c0.546,0.039,1.093,0.224,1.569,0.505c-0.663-1.535-1.64-2.894-2.865-3.993c-0.306-0.143-1-0.233-1.669-0.229
		c-0.552,0-1.099,0.049-1.453,0.115v0.001l-0.002-0.001h0.002l-0.145-0.779c0.421-0.077,1-0.126,1.597-0.126
		c0.124,0,0.249,0.005,0.375,0.012c-1.351-0.903-2.919-1.526-4.638-1.796c-0.589-0.005-1.684,0.465-2.063,0.992l-0.628-0.485
		c0.208-0.255,0.468-0.474,0.758-0.661c-0.008,0-0.015,0-0.021,0c-1.873,0.003-3.475,0.248-4.938,0.744l-0.317,0.154
		c-0.511,0.286-0.702,0.852-0.771,1.287l-0.779-0.143c0.037-0.177,0.101-0.383,0.19-0.592c-3.983,2.006-6.023,5.834-6.036,9.854
		c0,2.456,0.498,4.547,1.385,6.333c2.074,4.19,6.322,6.767,11.454,8.232c0.006-0.003,0.01-0.004,0.018-0.006l0.003,0.012
		l0.091,0.027c4.041,1.135,8.6,1.576,12.979,1.576c0.89,0,1.771-0.02,2.642-0.051l0.446-0.02l-0.037,0.448
		c-0.09,0.458-0.374,0.59-0.7,0.841c-0.248,0.165-0.543,0.33-0.861,0.493c3.01-0.413,7.175-1.216,10.764-1.219
		c0.354,0,0.705,0.013,1.048,0.029c-3.144-1.066-7.519-2.024-10.964-2.42C145.169,60.946,145.469,61.075,145.543,61.534"/>
	<path fill="#009640" d="M75.811,28.406c-0.814,0.188-1.361,0.401-1.442,0.474c-0.115,0.089-0.14,0.148-0.146,0.275
		c-0.009,0.203,0.173,0.573,0.507,0.856c0.328,0.289,0.778,0.492,1.22,0.49c0.138,0,0.275-0.017,0.413-0.057
		c2.365-0.691,4.933-0.982,7.583-0.984c9.238,0.007,19.504,3.53,25.796,6.368c-0.578-0.698-0.874-1.388-0.888-2.069
		c-0.002-0.936,0.618-1.709,1.589-2.186c0.976-0.485,2.333-0.744,4.037-0.746c0.728,0,1.521,0.052,2.369,0.155
		c-9.754-2.98-19.191-3.893-26.704-3.892C83.449,27.089,78.279,27.811,75.811,28.406"/>
	<polygon points="140.942,65.289 140.943,65.289 140.942,65.288 	"/>
	<path fill="#FFFFFF" d="M117.382,72.341h-8.339v-7.439h-1.034c-0.131,1.29-0.816,2.904-1.684,4.673l-0.366,0.738l-0.348-0.745
		c-0.892-1.911-1.51-3.459-1.658-4.666h-1.14v7.439h-8.342l-0.001-7.439h-6.226v7.439h-8.341v-7.439h-0.897
		c-0.132,1.29-0.82,2.906-1.687,4.673l-0.364,0.738l-0.349-0.744c-0.89-1.91-1.516-3.459-1.664-4.666H73.68v7.439h-8.342
		l-0.001-7.439h-6.227v13.745h64.501V64.904h-6.229V72.341z"/>
	<path fill="#009640" d="M119.404,62.127c0.207,0.005,0.418,0.01,0.63,0.01c0.6,0,1.229-0.023,1.859-0.063
		c0.332-0.375,0.843-1.179,0.936-1.501l0.751,0.244c-0.121,0.337-0.363,0.777-0.637,1.179c1.738-0.156,3.42-0.421,4.613-0.705
		c-4.434-1.539-8.162-4.03-10.169-7.902c-0.805-0.349-2.874-1.187-3.624-1.955c-0.211-0.224-0.326-0.501-0.322-0.772
		c0.001-0.196,0.057-0.377,0.153-0.53c-0.366-0.072-0.775-0.15-1.179-0.235c-0.892-0.208-1.769-0.418-2.306-1.002
		c-0.091-0.121-0.124-0.268-0.123-0.382c0.021-0.424,0.266-0.751,0.583-1.073c0.062-0.058,0.127-0.115,0.193-0.167
		c-0.414-0.105-0.878-0.204-1.333-0.295c-1.021-0.213-1.984-0.384-2.506-0.604c-0.151-0.082-0.304-0.11-0.442-0.404
		c-0.035-0.108-0.052-0.222-0.051-0.336c0.008-0.542,0.33-1.12,0.934-1.527c-1.406-0.25-2.816-0.628-4.07-1.06
		c-3.053-0.958-5.222-1.344-6.66-1.341c-0.962-0.002-1.587,0.177-1.93,0.413c-0.34,0.24-0.46,0.505-0.469,0.91
		c-0.035,1.147,1.421,3.163,3.205,4.595c0.166,0.122,0.333,0.25,0.492,0.388l-0.298,0.372l-0.165,0.268
		c-0.562-0.334-1.104-0.7-1.618-1.087c-1.834-1.004-4.132-1.595-5.866-1.594c-0.817-0.001-1.504,0.133-1.94,0.371
		c-0.435,0.249-0.623,0.517-0.634,0.974c-0.004,0.483,0.283,1.232,1.053,2.21l-0.625,0.489c-0.821-1.051-1.215-1.923-1.22-2.698
		c-0.01-0.749,0.429-1.352,1.05-1.672c0.619-0.33,1.417-0.462,2.315-0.464c1.133,0.001,2.435,0.221,3.713,0.624
		c-2.611-2.272-4.96-4.565-8.341-5.079c-0.55-0.088-0.996-0.126-1.344-0.126c-0.516-0.002-0.801,0.095-0.917,0.189
		c-0.112,0.091-0.167,0.193-0.172,0.479c-0.026,1.016,1.138,3.33,1.52,6.368l-0.786,0.098c-0.354-2.926-1.501-5.046-1.527-6.466
		c-0.005-0.409,0.127-0.838,0.483-1.108c0.347-0.262,0.804-0.351,1.399-0.353c0.408,0,0.889,0.045,1.466,0.135
		c1.037,0.165,1.975,0.474,2.849,0.883c-1.723-1.061-3.626-1.778-5.758-1.769c-0.284,0-0.572,0.012-0.865,0.041
		c-0.048,0.003-0.089,0.003-0.124,0.003c-1.104-0.055-1.928-1.072-1.971-2.016c-0.019-0.409,0.252-0.877,0.73-1.025
		c0.868-0.308,1.897-0.498,3.17-0.498c2.318,0.003,5.45,0.63,9.951,2.307c-3.852-1.935-7.532-3.189-13.479-3.194
		c-0.424,0-0.857,0.006-1.313,0.021H78.63c-1.042-0.025-1.988-0.74-2.036-1.691c-0.007-0.587,0.474-1.091,1.235-1.291
		c1.107-0.313,3.788-0.834,7.798-0.837c2.943,0,6.6,0.284,10.855,1.142c-4.099-1.046-8.438-1.762-12.537-1.761
		c-2.592,0-5.087,0.286-7.36,0.95c-0.215,0.064-0.428,0.091-0.636,0.09c-1.347-0.038-2.467-1.066-2.518-2.14
		c-0.007-0.34,0.161-0.702,0.474-0.92c0.323-0.219,0.854-0.384,1.722-0.598c0.854-0.207,2-0.422,3.397-0.622
		c2.803-0.396,6.618-0.717,11.122-0.718c4.045,0.001,8.646,0.263,13.552,0.964c-5.574-1.182-11.458-1.962-17.168-1.962
		c-5.149,0-10.157,0.633-14.669,2.17c-0.235,0.08-0.465,0.118-0.686,0.118c-1.355-0.035-2.05-1.326-2.055-2.32
		c0.001-0.345,0.082-0.693,0.313-0.966c2.457-2.828,9.097-4.055,17.957-4.079c10.604,0.002,24.36,1.883,37.588,5.625
		c-15.312-5.34-28.624-7.342-38.696-7.341c-6.381-0.001-11.465,0.8-14.918,2.042c-3.479,1.239-5.201,2.922-5.17,4.447
		c0,0.36,0.086,0.73,0.274,1.118c1.229,2.679,6.113,4.281,11.358,11.243c2.368,3.155,3.268,5.388,3.428,7.137
		c0.015,0.188,0.022,0.367,0.022,0.542c0,1.524-0.588,2.6-1.017,3.5l-0.716-0.342c0.383-0.795,0.795-1.58,0.908-2.61
		c-1.32,1.686-2.213,2.584-3.909,3.058l-1.068,0.299l0.636-0.907c0.151-0.217,0.264-0.46,0.328-0.746
		c-0.191,0.104-0.409,0.206-0.649,0.3c-0.752,0.292-1.721,0.518-2.714,0.518c-1.115,0.002-2.286-0.292-3.111-1.182l-0.261-0.282
		l0.272-0.269c0.297-0.295,0.68-0.704,1.209-0.988c-1.928-0.929-3.596-2.722-4.862-4.802l-0.517-0.854l0.96,0.266
		c0.349,0.102,1.365,0.175,2.456,0.175c-0.497-0.474-1.013-1.117-1.601-1.819c-1.027-1.259-2.171-2.72-3.243-3.678l-0.978-0.878
		l1.299,0.191c0.165,0.024,0.403,0.034,0.679,0.034c0.47,0,1.051-0.029,1.645-0.048c-1.847-0.921-3.81-2.132-4.989-2.832
		l-0.833-0.496l0.942-0.229c0.235-0.028,1.083-0.61,1.739-1.204c-0.598,0.064-1.29,0.064-2.018,0.072
		c-0.538,0-1.084-0.007-1.595-0.007c-0.384,0-0.748,0.007-1.069,0.022l-0.516,0.024l0.113-0.503c0.107-0.488,0.335-1.46,0.497-2.423
		c-1.128,1.318-2.886,2.358-4.307,3.164l-0.532,0.297l-0.058-0.606c-0.078-0.834-0.134-1.502-0.167-2.112
		c-0.757,1.857-1.566,2.878-3.267,3.964c0.421,1.316,0.736,2.61,0.736,3.858c0,0.822-0.137,1.626-0.476,2.39
		c-0.189,0.396-0.36,0.722-0.817,0.757c-0.302-0.009-0.458-0.179-0.579-0.304c-0.121-0.134-0.221-0.279-0.323-0.413
		c-0.202-0.282-0.394-0.425-0.464-0.404c-0.023,0-0.061,0.004-0.117,0.03l-0.34-0.715c0.146-0.071,0.302-0.107,0.457-0.107
		c0.503,0.011,0.801,0.349,1.01,0.603c0.13,0.171,0.255,0.342,0.338,0.442c0.033-0.051,0.071-0.121,0.109-0.213
		c0.288-0.646,0.41-1.332,0.411-2.067c0-1.198-0.333-2.521-0.794-3.917c-0.348-1.059-0.772-2.158-1.17-3.28
		c-0.291,2.607-1.6,4.184-2.127,6.208c-0.021,0.104-0.049,0.19-0.067,0.275c-0.127,0.533-0.206,1.112-0.206,1.763
		c0,0.199,0.008,0.403,0.025,0.623c-0.002,0.048,0.066,0.222,0.184,0.34c0.114,0.127,0.254,0.19,0.338,0.186
		c0.011,0,0.031-0.002,0.066-0.007l0.14,0.78c-0.06,0.01-0.128,0.021-0.206,0.021c-0.778-0.052-1.238-0.678-1.311-1.261
		c-0.019-0.235-0.027-0.464-0.027-0.682c0-0.216,0.01-0.423,0.025-0.626c-0.819,0.99-1.485,2.035-1.954,3.069
		c-0.516,1.125-0.795,2.242-0.793,3.262c0.022,2.552-0.384,5.642-7.05,11.176c-0.49,0.404-0.615,0.716-0.609,0.884
		c-0.013,0.206,0.205,0.484,0.716,0.713c0.496,0.219,1.195,0.354,1.847,0.352c0.649,0.003,1.255-0.134,1.566-0.353
		c0.065-0.043,0.127-0.085,0.185-0.123c0.482-0.335,0.928-0.658,1.388-1.03c1.294-1.047,2.712-2.491,5.253-5.606
		c0.252-0.309,0.516-0.637,0.79-0.979c0.637-0.802,1.343-1.178,2.019-1.176c0.816,0.002,1.458,0.532,1.812,1.166
		c0.212,0.383,0.339,0.818,0.339,1.254c0,0.152-0.016,0.308-0.049,0.461c-0.311,1.27-1.881,3.891-1.883,7.187
		c0,0.541,0.044,1.096,0.141,1.666c0.159-0.185,0.364-0.413,0.625-0.642c0.436-0.384,1.038-0.772,1.847-1.004
		c-0.167-0.063-0.335-0.131-0.497-0.2c-0.637-0.303-1.332-0.568-1.403-1.355c-0.001-0.113,0.024-0.221,0.062-0.325
		c0.259-0.958,1.203-2.393,2.091-4.031c0.897-1.637,1.715-3.44,1.706-4.797c-0.025-1.064-0.4-1.816-1.712-2.335
		c-0.163-0.064-0.35-0.122-0.546-0.171l0.194-0.768c0.225,0.058,0.439,0.124,0.633,0.197c0.01,0.004,0.017,0.009,0.03-0.001
		c0.082,0.039,0.158,0.053,0.235,0.053c0.257,0.011,0.634-0.234,0.939-0.748c0.301-0.501,0.509-1.221,0.509-1.973
		c0-0.792-0.225-1.62-0.788-2.329c0,0,0.612-0.504,0.627-0.484c0.396,0.458,1.482,0.876,2.588,0.863
		c0.72,0.001,1.442-0.159,2.008-0.511c0.445-0.285,0.805-0.682,1.029-1.234l0.735,0.294c-0.254,0.639-0.672,1.121-1.165,1.479
		c-0.106,0.829-0.167,1.745-0.167,2.72c-0.001,0.815,0.048,1.674,0.141,2.545c0.738-0.323,1.4-0.855,1.664-1.487l0.729,0.311
		c-0.424,0.972-1.345,1.626-2.296,1.99c0.208,1.472,0.574,2.973,1.12,4.404c0.547-0.167,1.772-0.875,2.34-1.487l0.574,0.547
		c-0.708,0.724-1.845,1.407-2.611,1.672c0.088,0.204,0.17,0.407,0.267,0.608c0.441,0.911,1.159,2.037,2.121,3.202
		c0.783-0.165,2.156-0.943,2.849-1.811l0.613,0.502c-0.76,0.905-1.92,1.644-2.902,1.969c0.982,1.106,2.185,2.227,3.588,3.247
		c0.93-0.016,2.184-0.769,2.652-1.637l0.691,0.384c-0.506,0.885-1.445,1.582-2.431,1.883c1.48,0.969,3.161,1.809,5.027,2.407
		c0.77-0.315,2.087-1.498,2.349-2.435l0.757,0.234c-0.332,0.998-1.204,1.924-2.061,2.509c0.331,0.087,0.667,0.166,1.008,0.239
		c0.265-0.049,0.537-0.093,0.832-0.13c1.89-0.232,3.096-0.607,3.789-1.007c0.696-0.407,0.851-0.768,0.856-1.083
		c0.008-0.37-0.282-0.834-0.703-1.19c-0.907-0.784-1.435-1.458-1.445-2.258c0.034-1.076,0.911-1.867,2.309-3.001l0.495,0.62
		c-1.409,1.103-2.044,1.867-2.01,2.381c-0.012,0.384,0.3,0.916,1.169,1.659c0.51,0.443,0.97,1.048,0.979,1.789
		c0.004,0.659-0.417,1.303-1.258,1.771c-0.842,0.483-2.132,0.864-4.08,1.107c-0.917,0.115-1.875,0.286-2.699,0.72
		c-0.22,0.116-0.43,0.261-0.611,0.434c-0.15,0.141-0.289,0.305-0.386,0.486c-0.027,0.046-0.214,0.523-0.169,0.532
		c0.166,0.037,0.324,0.099,0.475,0.209c0.235,0.174,0.389,0.424,0.491,0.74c0.018,0.058,0.671,0.066,0.739,0.071
		c0.079,0.004,0.969,0.042,0.969,0.044c0.08-0.259,0.208-0.491,0.404-0.677c0.366-0.35,0.89-0.497,1.518-0.496
		c0.675-0.001,1.223,0.168,1.598,0.541c0.167,0.168,0.285,0.372,0.365,0.592c0.008-0.001,0.018-0.001,0.026-0.002
		c0.105-0.003,0.207-0.009,0.31-0.012c0.226-0.012,0.451-0.021,0.659-0.032c0.193-0.01,0.377-0.022,0.552-0.035
		c0.105-0.312,0.255-0.55,0.49-0.734c0.315-0.229,0.667-0.258,1.027-0.258c0.03,0,0.059,0.012,0.09,0.013
		c-0.068-0.307-0.161-0.659-0.169-1.01c0-0.14,0.017-0.292,0.089-0.449c0.103-0.247,0.371-0.453,0.673-0.502
		c2.127-0.421,3.777-0.937,4.857-1.518c1.096-0.587,1.544-1.19,1.534-1.752c0.01-0.521-0.195-1.085-1.343-2.064
		c-0.277-0.235-0.695-0.594-0.695-0.594l0.468-0.572c0,0,0.338,0.288,0.675,0.568c1.073,0.894,1.68,1.748,1.69,2.661
		c-0.009,1.02-0.769,1.819-1.955,2.453c-0.932,0.496-2.169,0.921-3.689,1.289c0.348,0.021,0.702,0.032,1.07,0.032
		c1.911,0.002,4.065-0.29,5.947-1.118c1.028-0.447,1.976-1.061,2.765-1.867l0.567,0.552c-0.534,0.546-1.135,1.001-1.771,1.385
		c1.675,0.118,3.038,0.172,4.131,0.172c1.903,0.003,3.011-0.171,3.538-0.399c0.43-0.204,0.43-0.298,0.446-0.449
		c0-0.032-0.004-0.078-0.016-0.132l0.779-0.146c0.017,0.084,0.028,0.177,0.028,0.278c0.008,0.242-0.077,0.477-0.232,0.678
		c1.02,0.208,2.409,0.258,3.054,0.263c-0.036-0.052-0.083-0.109-0.154-0.18c-0.217-0.219-0.597-0.504-1.162-0.849
		c-1.147-0.698-1.85-1.588-1.853-2.62c0.042-1.698,1.756-3.233,5.095-4.692l0.313,0.728c-3.28,1.401-4.66,2.917-4.617,3.966
		c-0.002,0.636,0.439,1.306,1.475,1.943c1.168,0.742,1.734,1.193,1.788,1.889c0.003,0.277-0.142,0.508-0.307,0.661
		c-0.443,0.394-1.104,0.557-1.799,0.77c-0.687,0.204-1.398,0.421-1.794,0.701c0.117,0.038,0.234,0.088,0.344,0.167
		c0.229,0.168,0.375,0.408,0.479,0.708c0.093,0.016,0.187,0.034,0.289,0.051c0.216,0.033,0.451,0.062,0.691,0.089
		c0.233,0.025,0.476,0.048,0.726,0.065c0.076-0.278,0.205-0.534,0.417-0.736c0.367-0.349,0.889-0.496,1.518-0.495
		c0.672-0.001,1.222,0.168,1.597,0.541c0.202,0.202,0.33,0.449,0.411,0.717c0.035-0.002,0.071-0.005,0.106-0.008
		c0.106-0.008,0.2-0.021,0.303-0.029c0.106-0.011,0.217-0.021,0.319-0.032c0.036-0.005,0.076-0.009,0.11-0.013
		c0.232-0.028,0.447-0.064,0.661-0.103c0.104-0.323,0.254-0.569,0.493-0.756c0.074-0.055,0.152-0.098,0.233-0.131
		c-0.041-0.108-0.075-0.216-0.097-0.327c-0.024-0.109-0.036-0.22-0.037-0.333c0.007-0.616,0.336-1.131,0.933-1.858
		c0.554-0.656,0.951-1.177,0.929-1.533c0.009-0.302-0.236-0.779-1.292-1.469l0.437-0.661c1.11,0.73,1.638,1.381,1.647,2.13
		c-0.025,0.824-0.597,1.387-1.111,2.035c-0.167,0.203-0.298,0.375-0.404,0.528c1.003,0.249,3.161,0.543,5.281,0.73
		c0.76-0.444,1.618-1.259,1.672-2.151l0.785,0.081c-0.118,0.897-0.62,1.629-1.229,2.166
		C118.29,62.084,118.874,62.114,119.404,62.127 M39.393,52.234c-0.384,0.489-0.607,0.976-0.584,1.161l-0.001,0.011l-0.771,0.189
		c-0.02-0.081-0.021-0.148-0.021-0.2c0.042-0.869,0.867-2.099,2.107-2.829c0.086-0.054,0.186-0.084,0.289-0.084
		c0.39,0.017,0.566,0.35,0.566,0.624C40.957,51.672,40.425,52.119,39.393,52.234"/>
	<path fill="#FFED00" d="M47.736,47.242c-0.254,0.317-0.497,0.616-0.732,0.907c-0.007,0.017-0.009,0.034-0.018,0.048
		c-1.167,1.885-1.729,4.843-2.465,7.972c-0.746,3.129-1.676,6.44-3.721,9.072c-1.005,1.258-1.599,1.827-2.315,1.87
		c-0.096,0-0.182-0.018-0.265-0.043c0.051,0.622,0.079,1.247,0.079,1.815v0.007c0.721-1.06,1.677-2.226,2.609-3.344
		c3.061-3.664,4.338-7.357,5.365-10.657c1.001-3.201,1.751-6.052,3.771-8.061c-0.247-0.288-0.57-0.468-0.91-0.466
		C48.764,46.363,48.285,46.559,47.736,47.242"/>
	<path fill="#009640" d="M46.012,33.928c0.002-0.01,0.005-0.019,0.007-0.028c-0.379-1.055-1.099-2.299-1.771-3.981
		c-0.236,2.198-0.88,4.64-0.873,6.381c-0.002,0.403,0.035,0.757,0.109,1.061C44.125,36.171,44.985,35.006,46.012,33.928"/>
	<path d="M48.802,39.458l0.06-0.526c-0.14-0.017-0.278-0.023-0.416-0.023c-0.123,0-0.247,0.012-0.37,0.027
		c-0.015-0.007-0.027-0.019-0.043-0.024l-0.012,0.029c-0.016,0.001-0.033,0.001-0.049,0.005c-1.682,0.229-2.854,1.756-3.07,3.861
		c-0.013,0.063-0.018,0.134-0.022,0.196c-0.153,1.783-0.917,2.341-1.741,2.743l0.223,0.48c0.865-0.39,1.78-1.153,2.001-2.849
		c0.436,0.327,0.975,0.522,1.56,0.52c1.447-0.001,2.614-1.167,2.616-2.615c0.001-0.714-0.285-1.357-0.748-1.826
		C48.796,39.458,48.799,39.457,48.802,39.458"/>
	<path fill="#FFFFFF" d="M47.973,39.487c0.314,0.179,0.574,0.437,0.755,0.749c-0.104-0.094-0.214-0.182-0.339-0.26
		c-0.305-0.188-0.633-0.294-0.956-0.329C47.606,39.576,47.784,39.519,47.973,39.487"/>
	<path fill="#FFFFFF" d="M46.923,43.369c-0.58,0-1.097-0.246-1.474-0.63c0.046-0.354,0.127-0.673,0.224-0.975
		c0.158,0.437,0.479,0.834,0.927,1.114c0.349,0.215,0.732,0.323,1.103,0.339C47.46,43.313,47.199,43.369,46.923,43.369"/>
	<path fill="#FFED00" d="M47.781,42.694c-0.293,0-0.612-0.084-0.903-0.265c-0.513-0.314-0.794-0.828-0.792-1.269
		c0-0.043,0.011-0.083,0.016-0.126l2.369,1.459C48.281,42.618,48.05,42.693,47.781,42.694"/>
	<path fill="#FFED00" d="M48.903,41.691c0,0.043-0.011,0.084-0.017,0.125l-2.367-1.457c0.188-0.125,0.42-0.203,0.686-0.203
		c0.292,0,0.611,0.086,0.909,0.269C48.624,40.74,48.905,41.248,48.903,41.691"/>
	<path d="M40.458,54.787c0.465,0.609,1.009,0.863,1.599,0.956c-0.394-0.331-0.705-0.805-0.918-1.46
		C40.915,54.455,40.688,54.624,40.458,54.787"/>
	<path fill="#FFFFFF" d="M40.458,54.787c0.229-0.163,0.457-0.332,0.681-0.504c0.213,0.655,0.524,1.129,0.918,1.46
		C41.467,55.65,40.925,55.396,40.458,54.787"/>
	<path d="M39.393,52.234c-0.384,0.489-0.607,0.976-0.584,1.161l-0.001,0.011l-0.771,0.189c-0.02-0.081-0.021-0.148-0.021-0.2
		c0.042-0.869,0.867-2.099,2.107-2.829c0.086-0.054,0.186-0.084,0.289-0.084c0.39,0.017,0.566,0.35,0.566,0.624
		C40.957,51.672,40.425,52.119,39.393,52.234"/>
	<path fill="#FFED00" d="M72.336,63.474c-0.077-0.064-0.234-0.104-0.542-0.104h-0.011c-0.259,0.008-0.417,0.101-0.573,0.328
		c-0.15,0.229-0.256,0.607-0.255,1.071c-0.002,1.104,0.563,2.635,1.851,3.806c-0.002-1.74-0.021-2.941-0.093-3.748
		C72.639,63.887,72.457,63.542,72.336,63.474"/>
	<path fill="#FFED00" d="M81.94,63.37c-0.306,0-0.465,0.041-0.542,0.104c-0.081,0.056-0.188,0.202-0.274,0.599
		c-0.155,0.713-0.192,2.097-0.196,4.502c1.287-1.17,1.852-2.703,1.848-3.805c0.001-0.465-0.102-0.843-0.251-1.072
		c-0.159-0.228-0.313-0.32-0.572-0.328H81.94z"/>
	<path fill="#FFED00" d="M75.959,63.588c-0.162,0.152-0.261,0.396-0.263,0.818c-0.008,0.86,0.476,2.283,1.279,4.066
		c0.759-1.615,1.278-3.062,1.27-3.971c-0.002-0.433-0.106-0.708-0.278-0.88c-0.174-0.173-0.483-0.308-1.039-0.31
		C76.409,63.312,76.118,63.431,75.959,63.588"/>
	<path fill="#FFED00" d="M111.783,64.77c0.001-0.465-0.1-0.842-0.253-1.073c-0.155-0.225-0.313-0.318-0.571-0.327h-0.012
		c-0.308,0-0.467,0.041-0.543,0.104c-0.081,0.056-0.188,0.202-0.272,0.6c-0.157,0.712-0.194,2.096-0.196,4.501
		C111.221,67.404,111.786,65.872,111.783,64.77"/>
	<path fill="#FFED00" d="M101.719,64.828c-0.073-0.942-0.253-1.286-0.376-1.354c-0.074-0.063-0.232-0.106-0.531-0.106h-0.024
		c-0.26,0.008-0.417,0.1-0.573,0.328c-0.15,0.229-0.256,0.608-0.254,1.073c-0.003,1.104,0.562,2.635,1.851,3.806
		C101.808,66.835,101.79,65.634,101.719,64.828"/>
	<path fill="#FFED00" d="M104.962,63.588c-0.159,0.152-0.259,0.396-0.261,0.818c-0.006,0.86,0.475,2.283,1.279,4.066
		c0.758-1.615,1.278-3.062,1.269-3.971c-0.002-0.433-0.105-0.708-0.278-0.88c-0.174-0.173-0.484-0.308-1.038-0.309
		C105.415,63.312,105.123,63.431,104.962,63.588"/>
	<path fill="#FFFFFF" d="M66.396,129.005h3.271v-8.676h9.509v8.676h7.431v-8.676h4.251V79.701H66.396V129.005z M116.324,129.005
		l-0.001-49.304H91.915v40.628h4.201l-0.002,8.676h7.432v-8.676h9.507v8.676H116.324z"/>
	<rect x="73.328" y="86.468" width="10.569" height="13.263"/>
	<rect x="98.823" y="86.468" width="10.57" height="13.263"/>
	<polygon fill="#FFFFFF" points="145.891,136.647 36.83,136.647 36.83,121.366 44.26,121.366 44.26,130.043 53.769,130.043 
		53.769,121.366 61.199,121.366 61.199,130.043 70.706,130.043 70.706,121.366 78.136,121.366 78.136,130.043 87.643,130.043 
		87.643,121.366 95.073,121.366 95.073,130.043 104.582,130.043 104.582,121.366 112.014,121.366 112.014,130.043 121.521,130.043 
		121.521,121.366 128.953,121.366 128.953,130.043 138.461,130.043 138.461,121.366 145.891,121.366 	"/>
	<path fill="#FFED00" d="M99.182,158.71h-2.623v-3.317h1.555c-0.187-0.345-0.393-0.658-0.611-0.955h-0.944v-1.068
		c-0.304-0.283-0.62-0.539-0.954-0.761v1.829h-3.584v-3.079c-0.223-0.02-0.446-0.032-0.671-0.033
		c-0.095,0.001-0.189,0.013-0.284,0.016v3.099h-3.893v-1.886c-0.334,0.218-0.651,0.47-0.955,0.744v1.142h-1.025
		c-0.219,0.298-0.423,0.612-0.607,0.955h1.632v3.317h-2.661c-0.042,0.308-0.07,0.628-0.089,0.953h2.75v2.781
		c0,0.264,0.214,0.478,0.478,0.478c0.263,0,0.477-0.214,0.477-0.478v-2.781h3.893v2.781c0,0.264,0.214,0.478,0.477,0.478
		c0.264,0,0.479-0.214,0.479-0.478v-2.781h3.584v2.781c0,0.264,0.212,0.478,0.478,0.478c0.263,0,0.476-0.214,0.476-0.478v-2.781
		h2.73C99.264,159.336,99.229,159.018,99.182,158.71 M91.066,158.71h-3.893v-3.318h3.893V158.71z M95.605,158.71H92.02v-3.318h3.585
		V158.71z"/>
	<path d="M52.552,145.998c-3.066,0-5.549,2.483-5.549,5.548v10.419h11.097v-10.418C58.099,148.481,55.615,145.998,52.552,145.998"/>
	<path d="M130.172,145.998c-3.065,0-5.548,2.483-5.548,5.548v10.419h11.096v-10.418
		C135.719,148.481,133.237,145.998,130.172,145.998"/>
</g>
</svg>
